<?xml version="1.0" standalone="no"?>
<!DOCTYPE svg PUBLIC "-//W3C//DTD SVG 20010904//EN"
 "http://www.w3.org/TR/2001/REC-SVG-20010904/DTD/svg10.dtd">
<svg version="1.0" xmlns="http://www.w3.org/2000/svg"
 width="221.000000pt" height="221.000000pt" viewBox="0 0 221.000000 221.000000"
 preserveAspectRatio="xMidYMid meet">
<metadata>
Created by potrace 1.11, written by Peter Selinger 2001-2013
</metadata>
<g transform="translate(0.000000,221.000000) scale(0.100000,-0.100000)"
fill="#000000" stroke="none">
<path d="M1013 1896 c-16 -9 -60 -45 -94 -78 -16 -15 -16 -20 -3 -65 9 -26 23
-78 33 -115 l17 -67 -30 -13 c-40 -16 -54 -30 -71 -71 -24 -58 5 -125 66 -155
29 -14 33 -21 31 -47 -2 -16 -4 -45 -4 -62 1 -29 -3 -33 -25 -33 -22 0 -25 -4
-21 -25 4 -20 -2 -30 -31 -52 -135 -102 -258 -296 -317 -498 -33 -113 -37
-253 -11 -331 38 -112 142 -176 327 -202 77 -10 451 -6 527 6 217 35 311 134
311 326 -1 257 -168 581 -370 716 -40 27 -54 40 -40 40 27 0 36 27 13 39 -10
6 -21 7 -25 4 -3 -3 -6 10 -6 30 0 25 5 37 14 37 21 0 38 24 25 37 -8 8 -5 14
10 22 51 28 74 107 46 161 -17 33 -72 73 -88 63 -9 -6 -7 11 8 77 2 8 13 49
24 90 12 41 21 75 21 76 0 1 -25 23 -56 49 l-55 48 -105 1 c-58 1 -112 -3
-121 -8z m317 -396 c31 -31 30 -72 -3 -107 -20 -22 -27 -23 -199 -23 -177 0
-179 0 -203 25 -14 13 -25 30 -25 38 0 29 22 76 38 80 9 3 97 5 195 6 165 1
178 0 197 -19z m-160 -200 c-41 -10 -94 -21 -117 -25 -41 -5 -43 -4 -43 20 l0
25 118 -1 117 0 -75 -19z m67 -86 c-2 -2 -54 -7 -115 -10 -77 -5 -112 -3 -112
4 0 11 14 17 70 26 19 3 46 9 60 12 14 3 39 8 55 11 17 2 32 7 35 10 3 3 6 -7
8 -22 2 -15 2 -29 -1 -31z m5 -66 c4 -9 22 -25 40 -34 241 -122 451 -580 373
-814 -44 -133 -181 -179 -532 -178 -361 1 -484 46 -528 193 -26 86 -8 236 46
375 71 186 191 346 308 413 l31 18 1 -33 c3 -84 0 -91 -69 -160 -49 -48 -68
-75 -72 -100 -5 -32 -6 -33 -46 -30 -49 2 -56 -6 -97 -109 -55 -138 -75 -288
-50 -364 39 -113 145 -146 474 -146 237 -1 310 7 386 41 89 39 114 89 109 218
-4 94 -27 185 -77 293 l-31 67 -169 -2 c-106 -1 -169 3 -170 9 -3 44 -17 68
-75 122 l-65 63 -1 75 c0 42 2 79 6 82 3 4 43 8 88 10 45 2 84 6 86 8 9 9 27
-1 34 -17z m-140 -293 c13 -15 17 -38 18 -97 0 -43 -3 -78 -7 -77 -5 0 -25 20
-45 43 -35 40 -37 46 -40 123 l-3 82 29 -27 c17 -15 38 -36 48 -47z m-120 -20
l-1 -74 -45 -45 -45 -44 -3 81 -3 82 44 42 c25 24 47 40 49 38 3 -3 5 -38 4
-80z m-1 -214 l2 -73 -47 -46 -46 -47 0 75 c0 74 0 75 43 121 23 25 43 45 44
44 1 0 3 -34 4 -74z m74 51 c53 -45 65 -71 64 -143 l-1 -69 -44 43 c-43 41
-44 43 -46 115 -2 39 -1 72 2 72 3 -1 14 -8 25 -18z m-74 -275 c1 -43 0 -80
-3 -82 -2 -2 -23 14 -46 36 l-42 39 42 45 c23 24 43 43 45 42 1 -2 3 -38 4
-80z m96 -44 c-23 -24 -44 -43 -47 -43 -4 0 -5 86 -1 158 1 7 21 -7 45 -30
l44 -43 -41 -42z"/>
<path d="M1498 1573 c0 -4 -2 -12 -3 -18 -2 -5 -3 -18 -4 -27 -1 -11 -12 -18
-33 -20 -25 -2 -33 -8 -33 -23 0 -15 8 -21 32 -23 28 -3 32 -7 35 -35 2 -24 8
-32 23 -32 15 0 21 8 23 32 3 28 7 32 35 35 24 2 32 8 32 23 0 15 -8 21 -32
23 -28 3 -32 7 -35 35 -2 21 -9 33 -20 35 -10 2 -19 0 -20 -5z"/>
<path d="M646 1354 c-3 -9 -6 -26 -6 -39 0 -15 -6 -22 -17 -22 -44 0 -53 -4
-53 -23 0 -12 7 -20 18 -21 9 -1 23 -2 31 -3 8 0 19 -17 24 -36 5 -19 11 -37
13 -39 10 -10 34 24 34 49 0 19 5 27 18 27 43 0 52 4 52 23 0 20 -5 22 -47 23
-19 0 -23 5 -23 32 0 21 -6 35 -16 39 -21 8 -21 8 -28 -10z"/>
<path d="M1607 1283 c-4 -3 -7 -22 -7 -40 0 -22 -4 -32 -11 -28 -19 13 -59 -4
-59 -25 0 -16 7 -20 35 -20 32 0 35 -3 35 -29 0 -34 24 -59 36 -39 10 15 11
20 13 48 1 15 8 20 31 20 19 0 33 6 37 16 6 17 -13 35 -37 33 -32 -3 -38 2
-33 21 8 30 -22 62 -40 43z"/>
</g>
</svg>
