<?xml version="1.0" encoding="UTF-8" standalone="no"?>
<svg
   xmlns:i="ns_ai;"
   xmlns:dc="http://purl.org/dc/elements/1.1/"
   xmlns:cc="http://creativecommons.org/ns#"
   xmlns:rdf="http://www.w3.org/1999/02/22-rdf-syntax-ns#"
   xmlns:svg="http://www.w3.org/2000/svg"
   xmlns="http://www.w3.org/2000/svg"
   xml:space="preserve"
   viewBox="0 0 119.99731 183.21177"
   y="0px"
   x="0px"
   id="Layer_1"
   height="6.4628887cm"
   width="4.2333336cm"
   version="1.1"><metadata
     id="metadata407"><rdf:RDF><cc:Work
         rdf:about=""><dc:format>image/svg+xml</dc:format><dc:type
           rdf:resource="http://purl.org/dc/dcmitype/StillImage" /><dc:title></dc:title></cc:Work></rdf:RDF></metadata><defs
     id="defs405" /><style
     id="style3"
     type="text/css">
	.st0{fill:#1C3D61;}
	.st1{fill:#ED9339;}
</style><g
     transform="translate(-972.06248,-128.74528)"
     id="g11"><g
       id="g13"><path
         class="st0"
         d="m 398.3,240.5 c -29.2,5.8 -59.3,6 -88.6,0.6 l -3.3,58.4 c 30.8,11.5 62.6,11.9 95.3,0 l -3.4,-59 z"
         id="path15"
         style="fill:#1c3d61" /><path
         class="st0"
         d="m 397.7,230.7 -0.6,-11.3 c -11,3.1 -26.2,4.9 -43.1,4.9 -16.9,0 -32.1,-1.9 -43.1,-4.9 l -0.7,11.9 c 29,5.2 58.6,5 87.5,-0.6 z"
         id="path17"
         style="fill:#1c3d61" /></g><path
       class="st0"
       d="m 352.4,182.1 c -0.3,0 -0.5,0 -0.8,-0.1 -0.6,-0.2 -1.1,-0.7 -1.3,-1.2 l -5.8,-12.5 c -0.5,-1.2 0,-2.6 1.1,-3.1 l 126.1,-58.8 c 1.2,-0.5 2.6,0 3.1,1.1 l 5.8,12.5 c 0.3,0.6 0.3,1.2 0.1,1.8 -0.2,0.6 -0.7,1.1 -1.2,1.3 l -126.1,58.8 c -0.3,0.1 -0.6,0.2 -1,0.2 z m -2.7,-13.7 3.8,8.2 121.9,-56.8 -3.8,-8.2 -121.9,56.8 z"
       id="path19"
       style="fill:#1c3d61" /><rect
       x="423.39999"
       y="84.5"
       transform="matrix(-0.4226,-0.9063,0.9063,-0.4226,485.3439,582.6995)"
       class="st0"
       width="9.8000002"
       height="104.5"
       id="rect21"
       style="fill:#1c3d61" /><path
       class="st0"
       d="m 354,226.7 c -16.4,0 -31.8,-1.8 -43.5,-5 -12.7,-3.5 -19.5,-8.4 -19.5,-14.1 0,-5.7 6.7,-10.6 19.5,-14.1 11.6,-3.2 27.1,-5 43.5,-5 16.4,0 31.8,1.8 43.5,5 12.7,3.5 19.5,8.4 19.5,14.1 0,5.7 -6.7,10.6 -19.5,14.1 -11.7,3.2 -27.1,5 -43.5,5 z m 0,-33.4 c -36.1,0 -58.3,8.3 -58.3,14.3 0,6 22.2,14.3 58.3,14.3 36.1,0 58.3,-8.3 58.3,-14.3 -0.1,-6 -22.2,-14.3 -58.3,-14.3 z"
       id="path23"
       style="fill:#1c3d61" /><path
       class="st0"
       d="m 354,214 c -12.9,0 -25.4,-1.2 -35.3,-3.3 -2.3,-0.5 -4.3,-1 -6,-1.5 -1.5,-0.4 -1.5,-2.5 0,-2.9 1.7,-0.5 3.7,-1 6,-1.5 9.9,-2.2 22.5,-3.3 35.3,-3.3 12.9,0 25.4,1.2 35.3,3.3 2.3,0.5 4.3,1 6,1.5 1.5,0.4 1.5,2.5 0,2.9 -1.7,0.5 -3.7,1 -6,1.5 -9.9,2.1 -22.5,3.3 -35.3,3.3 z"
       id="path25"
       style="fill:#1c3d61" /><path
       class="st0"
       d="m 353.6,310.7 c -0.1,0 -0.2,0 -0.3,0 -16,0 -32,-3 -47.7,-8.9 -1,-0.4 -1.6,-1.3 -1.5,-2.3 l 4.5,-80.2 c 0,-0.7 0.4,-1.4 1,-1.8 0.6,-0.4 1.3,-0.5 2,-0.4 11.3,3.1 26.4,4.9 42.5,4.9 16.1,0 31.2,-1.7 42.5,-4.9 0.7,-0.2 1.4,-0.1 2,0.4 0.6,0.4 0.9,1.1 1,1.8 l 4.5,80.2 c 0.1,1 -0.6,2 -1.5,2.3 -16.5,5.9 -32.9,8.9 -49,8.9 z m -44.8,-12.8 c 29.6,10.6 59.9,10.6 90.4,0 l -4.3,-75.5 c -11.3,2.8 -25.7,4.3 -40.9,4.3 -15.2,0 -29.6,-1.5 -40.9,-4.3 l -4.3,75.5 z"
       id="path27"
       style="fill:#1c3d61" /><g
       id="g29"><path
         class="st1"
         d="m 311.5,179.3 c -1.3,0 -2.3,-1.1 -2.3,-2.3 l 0,-14.8 c 0,-1.3 1.1,-2.3 2.3,-2.3 1.2,0 2.4,1.1 2.4,2.3 l 0,14.8 c 0,1.3 -1.1,2.3 -2.4,2.3 z"
         id="path31"
         style="fill:#ed9339" /><path
         class="st1"
         d="m 318.9,171.9 -14.8,0 c -1.3,0 -2.4,-1.1 -2.4,-2.3 0,-1.2 1.1,-2.3 2.4,-2.3 l 14.8,0 c 1.3,0 2.3,1.1 2.3,2.3 0,1.2 -1,2.3 -2.3,2.3 z"
         id="path33"
         style="fill:#ed9339" /></g><g
       id="g35"><path
         class="st1"
         d="m 364.1,140.8 c -1.3,0 -2.4,-1.1 -2.4,-2.3 l 0,-14.8 c 0,-1.3 1.1,-2.3 2.4,-2.3 1.3,0 2.3,1.1 2.3,2.3 l 0,14.8 c 0.1,1.3 -1,2.3 -2.3,2.3 z"
         id="path37"
         style="fill:#ed9339" /><path
         class="st1"
         d="m 371.5,133.5 -14.8,0 c -1.3,0 -2.3,-1.1 -2.3,-2.3 0,-1.2 1.1,-2.3 2.3,-2.3 l 14.8,0 c 1.3,0 2.4,1.1 2.4,2.3 0,1.2 -1.1,2.3 -2.4,2.3 z"
         id="path39"
         style="fill:#ed9339" /></g><g
       id="g41"><path
         class="st1"
         d="m 412.6,190.9 c -1.3,0 -2.3,-1.1 -2.3,-2.3 l 0,-14.8 c 0,-1.3 1.1,-2.3 2.3,-2.3 1.2,0 2.4,1.1 2.4,2.3 l 0,14.8 c -0.1,1.3 -1.1,2.3 -2.4,2.3 z"
         id="path43"
         style="fill:#ed9339" /><path
         class="st1"
         d="m 420,183.5 -14.8,0 c -1.3,0 -2.4,-1.1 -2.4,-2.3 0,-1.2 1.1,-2.3 2.4,-2.3 l 14.8,0 c 1.3,0 2.3,1.1 2.3,2.3 0,1.2 -1.1,2.3 -2.3,2.3 z"
         id="path45"
         style="fill:#ed9339" /></g></g><g
     transform="translate(-972.06248,-128.74528)"
     id="g47"><path
       class="st0"
       d="m 802.9,611.9 -188.4,0 c -1.3,0 -2.4,-1.1 -2.4,-2.3 l 0,-139.2 c 0,-1.3 1.1,-2.3 2.4,-2.3 l 188.5,0 c 1.3,0 2.3,1.1 2.3,2.3 l 0,139.2 c 0,1.3 -1.1,2.3 -2.4,2.3 z m -186.1,-4.7 183.8,0 0,-134.5 -183.8,0 0,134.5 z"
       id="path49"
       style="fill:#1c3d61" /><path
       class="st0"
       d="m 755,599.4 -92.6,0 c -1.3,0 -2.3,-1 -2.3,-2.3 -0.1,-5.5 -4.7,-10 -10.2,-10 -0.7,0 -1.4,0.1 -2.2,0.2 -0.9,0.2 -1.9,-0.2 -2.5,-1 -1.5,-2.3 -3.4,-4.2 -5.7,-5.7 -0.8,-0.5 -1.2,-1.5 -1,-2.5 0.2,-0.7 0.2,-1.4 0.2,-2.2 0,-5.6 -4.6,-10.2 -10.2,-10.2 -0.4,0 -0.9,0 -1.3,0.1 -0.7,0.1 -1.3,-0.1 -1.9,-0.6 -0.5,-0.4 -0.8,-1.1 -0.8,-1.8 l 0,-47.3 c 0,-0.7 0.3,-1.3 0.8,-1.8 0.5,-0.4 1.2,-0.7 1.9,-0.6 0.5,0.1 0.9,0.1 1.3,0.1 5.6,0 10.2,-4.6 10.2,-10.2 0,-0.7 -0.1,-1.4 -0.2,-2.2 -0.2,-0.9 0.2,-1.9 1,-2.5 2.3,-1.5 4.2,-3.4 5.7,-5.7 0.5,-0.8 1.5,-1.2 2.5,-1 0.7,0.2 1.4,0.2 2.2,0.2 5.5,0 10.1,-4.5 10.2,-10 0,-1.3 1.1,-2.3 2.3,-2.3 l 92.6,0 c 1.3,0 2.3,1 2.3,2.3 0.1,5.5 4.7,10 10.2,10 0.7,0 1.4,-0.1 2.2,-0.2 0.9,-0.2 1.9,0.2 2.5,1 1.5,2.3 3.4,4.2 5.7,5.7 0.8,0.5 1.2,1.5 1,2.5 -0.2,0.7 -0.2,1.4 -0.2,2.2 0,5.6 4.6,10.2 10.2,10.2 0.4,0 0.9,0 1.3,-0.1 0.7,-0.1 1.3,0.1 1.9,0.6 0.5,0.4 0.8,1.1 0.8,1.8 l 0,47.3 c 0,0.7 -0.3,1.3 -0.8,1.8 -0.5,0.4 -1.2,0.7 -1.9,0.6 -0.5,-0.1 -0.9,-0.1 -1.3,-0.1 -5.6,0 -10.2,4.6 -10.2,10.2 0,0.7 0.1,1.4 0.2,2.2 0.2,0.9 -0.2,1.9 -1,2.5 -2.3,1.5 -4.2,3.4 -5.7,5.7 -0.5,0.8 -1.5,1.2 -2.5,1 -0.7,-0.2 -1.4,-0.2 -2.2,-0.2 -5.5,0 -10.1,4.5 -10.2,10 0,1.3 -1,2.3 -2.3,2.3 z m -90.5,-4.7 88.3,0 c 1.2,-7 7.4,-12.3 14.6,-12.3 0.5,0 1,0 1.6,0.1 1.4,-1.9 3,-3.5 4.9,-4.9 -0.1,-0.5 -0.1,-1 -0.1,-1.6 0,-8 6.3,-14.5 14.2,-14.9 l 0,-42.4 c -7.9,-0.4 -14.2,-6.9 -14.2,-14.9 0,-0.5 0,-1 0.1,-1.6 -1.9,-1.4 -3.5,-3 -4.9,-4.9 -0.5,0.1 -1,0.1 -1.6,0.1 -7.3,0 -13.4,-5.3 -14.6,-12.3 l -88.3,0 c -1.2,7 -7.4,12.3 -14.6,12.3 -0.5,0 -1,0 -1.6,-0.1 -1.4,1.9 -3,3.5 -4.9,4.9 0.1,0.5 0.1,1 0.1,1.6 0,8 -6.3,14.5 -14.2,14.9 l 0,42.4 c 7.9,0.4 14.2,6.9 14.2,14.9 0,0.5 0,1 -0.1,1.6 1.9,1.4 3.5,3 4.9,4.9 0.5,-0.1 1,-0.1 1.6,-0.1 7.2,0 13.4,5.4 14.6,12.3 z"
       id="path51"
       style="fill:#1c3d61" /><path
       class="st0"
       d="m 629.5,495.3 c -5.1,0 -9.2,-4.1 -9.2,-9.2 0,-5.1 4.1,-9.2 9.2,-9.2 5.1,0 9.2,4.1 9.2,9.2 0,5.1 -4.1,9.2 -9.2,9.2 z m 0,-13.7 c -2.5,0 -4.5,2 -4.5,4.5 0,2.5 2,4.5 4.5,4.5 2.5,0 4.5,-2 4.5,-4.5 0,-2.5 -2,-4.5 -4.5,-4.5 z"
       id="path53"
       style="fill:#1c3d61" /><path
       class="st0"
       d="m 786.4,498.1 c -5.3,0 -10.1,-3.6 -11.6,-8.7 -0.2,-0.8 0,-1.6 0.5,-2.2 0.5,-0.6 1.4,-0.9 2.2,-0.7 0.4,0.1 0.9,0.1 1.3,0.1 4,0 7.3,-3.3 7.3,-7.3 0,-0.7 -0.1,-1.4 -0.3,-2 -0.2,-0.8 0,-1.6 0.5,-2.2 0.5,-0.6 1.4,-0.9 2.2,-0.7 5.7,1 9.9,6 9.9,11.8 0,6.5 -5.4,11.9 -12,11.9 z m -5.4,-7 c 1.4,1.4 3.3,2.3 5.4,2.3 4,0 7.3,-3.3 7.3,-7.3 0,-2.4 -1.1,-4.5 -2.9,-5.8 -0.4,5.4 -4.5,9.8 -9.8,10.8 z"
       id="path55"
       style="fill:#1c3d61" /><g
       id="g57"><path
         class="st0"
         d="m 672.3,526.7 -1.4,5.4 -6.2,0.8 8.3,-27.9 6.2,-0.8 14.6,25.1 -6.4,0.8 -2.7,-4.9 -12.4,1.5 z m 4.4,-15.9 -2.9,10.8 8.4,-1 -5.5,-9.8 z"
         id="path59"
         style="fill:#1c3d61" /><path
         class="st0"
         d="m 710.8,502.6 c 5.9,0 9.5,2.6 9.5,6.7 0,2.9 -1.8,5.1 -4.6,5.9 3.4,0.7 5.6,3.3 5.6,6.8 0,4.6 -3.9,7.4 -10.1,7.4 l -12.7,0 0.1,-26.7 12.2,-0.1 z m -6.3,21.7 5.9,0 c 2.9,0 4.6,-1.2 4.6,-3.2 0,-1.9 -1.7,-3.1 -4.6,-3.1 l -5.9,0 0,6.3 z m 0,-11 5.9,0 c 2.2,0 3.7,-1.1 3.7,-3 0,-1.8 -1.4,-2.9 -3.7,-2.9 l -5.9,0 0,5.9 z"
         id="path61"
         style="fill:#1c3d61" /><path
         class="st0"
         d="m 753,510.3 -4,3.8 c -1.6,-2.3 -4,-4 -6.5,-4.3 -4.5,-0.6 -8.5,2.5 -9.1,7.2 -0.6,4.6 2.5,8.6 7.1,9.2 2.4,0.3 5.1,-0.6 7.3,-2.3 l 3.1,4.3 c -3.2,2.5 -7.4,3.9 -11.3,3.4 -7.9,-1 -13.2,-7.6 -12.2,-15.2 0.9,-7.6 7.7,-12.7 15.7,-11.7 3.8,0.4 7.6,2.6 9.9,5.6 z"
         id="path63"
         style="fill:#1c3d61" /></g><g
       id="g65"><path
         class="st1"
         d="m 733.2,538.4 c 0.2,-3 -3.1,-4.9 -5.6,-3.2 -10.5,7.1 -31.1,21.2 -32.4,23.3 -3,5.2 -1.2,11.9 4,15 3.1,1.8 6.6,1.9 9.6,0.6 0.4,3.2 2.3,6.3 5.4,8 5.2,3 11.9,1.2 15,-4 1.2,-2.1 3.1,-27 4,-39.7 z"
         id="path67"
         style="fill:#ed9339" /><path
         class="st0"
         d="m 719.7,585.9 c -2.3,0 -4.6,-0.6 -6.6,-1.8 -2.8,-1.6 -4.9,-4.1 -5.9,-7.1 -3.1,0.6 -6.3,0.1 -9.1,-1.6 -6.4,-3.7 -8.5,-11.8 -4.9,-18.2 0.5,-0.9 1.7,-2.9 33.1,-24.1 1.9,-1.3 4.3,-1.4 6.3,-0.2 2,1.1 3.1,3.3 3,5.6 -2.7,37.8 -3.8,39.8 -4.3,40.7 -1.8,3.1 -4.6,5.3 -8.1,6.2 -1.2,0.4 -2.4,0.5 -3.5,0.5 z m -10.9,-14.2 c 0.4,0 0.8,0.1 1.2,0.3 0.6,0.4 1.1,1 1.2,1.7 0.4,2.7 1.9,5 4.2,6.3 2,1.1 4.3,1.5 6.5,0.9 2.2,-0.6 4,-2 5.2,-3.9 0.6,-1.7 1.9,-12.7 3.7,-38.8 l 0,0 c 0.1,-0.7 -0.4,-1.1 -0.6,-1.2 -0.2,-0.1 -0.7,-0.4 -1.3,0 -21.6,14.6 -30.5,21.2 -31.7,22.6 -1.1,2 -1.4,4.3 -0.8,6.4 0.6,2.2 2,4.1 4,5.2 2.3,1.3 5.1,1.5 7.6,0.5 0.2,0.1 0.5,0 0.8,0 z"
         id="path69"
         style="fill:#1c3d61" /><circle
         transform="matrix(0.5,-0.866,0.866,0.5,-124.0327,902.0078)"
         class="st0"
         cx="719.09998"
         cy="558.40002"
         id="ellipse71"
         r="6.5999999"
         style="fill:#1c3d61" /></g></g><path
     style="fill:#86d0c5;fill-opacity:1"
     id="path75"
     d="m 100.01084,115.20738 -36.328497,0 -2.586632,38.0064 -13.8727,12.35693 -13.8727,-12.35693 -0.541388,-38.0064 -12.800365,9.3e-4 c -6.98624,12.35694 -9.613097,23.91055 -9.613097,34.8194 0,5.50269 0.99804,9.65386 3.19371,12.74308 1.79647,2.70307 4.69077,4.73038 8.58311,6.275 9.08213,3.47539 22.85503,3.765 37.42633,3.765 14.4715,0 28.2444,-0.28961 37.4264,-3.765 3.992099,-1.54462 6.786599,-3.57193 8.583099,-6.275 2.0958,-3.08922 3.1937,-7.24039 3.1937,-12.74308 -0.1,-10.8123 -1.70497,-22.4637 -8.79097,-34.82063 z"
     class="st1" /><path
     style="fill:#ffffff"
     id="path77"
     d="m 75.407287,55.203543 -30.817286,0 c -6.962076,0 -12.593154,-5.366201 -12.593154,-12.000773 0,-6.634571 5.631078,-12.000772 12.593154,-12.000772 l 30.817286,0 c 6.962077,0 12.593154,5.366201 12.593154,12.000772 0,6.537001 -5.733438,12.000773 -12.593154,12.000773 z M 44.590001,35.690094 c -4.300079,0 -7.781168,3.317286 -7.781168,7.415105 0,4.097829 3.481089,7.415115 7.781168,7.415115 l 30.817286,0 c 4.30018,0 7.781168,-3.317286 7.781168,-7.415115 0,-4.097819 -3.480988,-7.415105 -7.781168,-7.415105 l -30.817286,0 z"
     class="st0" /><polygon
     transform="matrix(1.0101659,0,0,0.8358747,-981.88646,-105.5471)"
     style="fill:#d38d5f"
     id="polygon79"
     points="1021.5,130.1 1011.6,138.1 1018.7,163.6 1044.1,163.6 1051.2,138.1 1041.3,130.1 "
     class="st0" /><path
     style="fill:#1c3d61"
     id="path81"
     d="m 9153.4905,35.202264 -27.484,0 c -1.19,0 -2.165,-0.65801 -2.489,-1.59801 l -7.683,-23.9702103 c -0.324,-0.846 0.108,-1.78602 0.866,-2.35002 l 10.713,-7.61406995 c 0.431,-0.282 0.973,-0.47 1.623,-0.47 l 21.424,0 c 0.542,0 1.19,0.188 1.623,0.47 l 10.713,7.61406995 c 0.757,0.564 1.083,1.50402 0.866,2.35002 l -7.683,23.9702103 c -0.325,0.94 -1.299,1.59801 -2.489,1.59801 z m -25.537,-4.41804 23.59,0 6.709,-20.9621803 -8.765,-6.20405 -19.694,0 -8.765,6.20405 6.925,20.9621803 z"
     class="st0" /><path
     style="fill:#ffffff"
     id="path83"
     d="m 59.943223,183.21177 c -15.7586,0 -30.7091,-0.40313 -41.61891,-4.73663 -12.3240103,-4.93818 -18.38501026,-14.51221 -18.38501026,-29.32677 0,-26.30339 18.48604026,-63.793276 43.53812026,-75.886786 l 0,-18.14027 c 0,-1.31013 1.1113,-2.31792 2.3235,-2.31792 l 28.2846,0 c 1.3133,0 2.3234,1.10857 2.3234,2.31792 l 0,18.14027 c 25.052097,12.09351 43.538097,49.583396 43.538097,75.886786 0,14.81456 -6.061,24.38859 -18.385,29.32677 -10.909897,4.3335 -25.860197,4.73663 -41.618797,4.73663 z m -11.718,-125.772536 0,17.23327 c 0,0.907 -0.606,1.81402 -1.4142,2.21713 -11.1118,4.8374 -21.81961,15.82235 -30.00195,30.737676 -7.5762503,13.70598 -12.1219903,29.22599 -12.1219903,41.52106 0,12.79896 4.8488,20.76054 15.3545203,24.99326 10.10162,4.03118 24.64802,4.33351 39.90162,4.33351 15.2535,0 29.6988,-0.30233 39.9015,-4.33351 10.505697,-4.23272 15.354497,-12.09352 15.354497,-24.99326 0,-12.29507 -4.5457,-27.81508 -12.1219,-41.52106 C 94.793823,92.711984 84.187223,81.827834 73.075323,76.889634 c -0.9091,-0.40311 -1.4143,-1.20935 -1.4143,-2.21713 l 0,-17.33405 -23.4358,0 z"
     class="st0" /><path
     style="fill:#ffffff"
     id="path85"
     d="m 43.897323,68.004374 c -1.0964,0 -2.0932,-0.80929 -2.2926,-1.92207 -0.299,-1.3151 0.4984,-2.52904 1.7942,-2.83252 l 33.6917,-7.18247 c 1.2958,-0.30349 2.492,0.5058 2.791,1.8209 0.2991,1.31511 -0.4984,2.52904 -1.7942,2.83253 l -33.6917,7.18247 c -0.1993,0 -0.3987,0.10116 -0.4984,0.10116 z"
     class="st0" /><path
     style="fill:#ffffff"
     id="path87"
     d="m 39.858723,75.204834 c -1.2052,0 -2.3101,-1.01317 -2.3101,-2.22896 -0.1004,-1.31712 0.904,-2.4316 2.2097,-2.53292 l 38.4683,-2.4316 c 1.3057,-0.10131 2.4105,0.91185 2.511,2.22897 0.1004,1.31711 -0.904,2.4316 -2.2097,2.53291 l -38.4683,2.4316 c -0.1004,0 -0.2009,0 -0.2009,0 z"
     class="st0" /><path
     style="fill:#ffffff"
     id="path89"
     d="m 48.047047,166.41069 c -0.5907,0 -1.0831,-0.19931 -1.5755,-0.59792 l -13.687,-12.75562 c -0.4923,-0.39861 -0.7877,-1.09618 -0.7877,-1.6941 l 0,-46.73739 c 0,-0.59792 0.2954,-1.19584 0.6892,-1.69411 l 13.6872,-13.453186 c 0.886,-0.89688 2.3632,-0.89688 3.2493,0 l 13.6871,13.453186 c 0.4923,0.39862 0.6893,1.09619 0.6893,1.69411 l 0,46.73739 c 0,0.69757 -0.2954,1.29549 -0.7878,1.6941 l -13.6869,12.75562 c -0.2956,0.39861 -0.8863,0.59792 -1.4772,0.59792 z m -11.3237,-16.14383 11.3237,10.56325 11.3239,-10.56325 0,-44.64467 -11.3239,-11.161156 -11.3237,11.161156 0,44.64467 z m 25.0108,0.99653 0,0 0,0 z"
     class="st0" /><path
     style="fill:#ffffff"
     id="path91"
     d="m 61.41963,129.60833 c -0.5892,0 -1.1784,-0.20138 -1.5712,-0.70483 l -11.98,-11.98217 -11.9801,11.98217 c -0.8837,0.90621 -2.3568,0.90621 -3.2404,-0.10069 -0.8838,-0.90622 -0.8838,-2.41657 0.098,-3.32279 l 13.6494,-13.59321 c 0.8838,-0.90622 2.3567,-0.90622 3.2405,0 l 13.6495,13.59321 c 0.8837,0.90622 0.9818,2.41657 0.098,3.32279 -0.7855,0.60414 -1.3747,0.80552 -1.9639,0.80552 z"
     class="st0" /><path
     style="fill:#ffffff"
     id="path93"
     d="m 61.419455,151.20971 c -0.5893,0 -1.1785,-0.20138 -1.5712,-0.70483 l -11.98,-11.98217 -11.9798,11.98217 c -0.8839,0.90621 -2.3569,0.90621 -3.2406,-0.10069 -0.8837,-0.90622 -0.8837,-2.41657 0.098,-3.32279 l 13.6493,-13.59321 c 0.8838,-0.90622 2.3566,-0.90622 3.2405,0 l 13.6492,13.59321 c 0.8837,0.90622 0.9819,2.41657 0.099,3.32279 -0.7855,0.60414 -1.3747,0.80552 -1.9638,0.80552 z"
     class="st0" /><path
     style="fill:#ffffff"
     id="path95"
     d="m 47.55532,167.21074 c -1.1064,0 -1.9576,-1.09098 -1.9576,-2.28114 l 0,-91.443886 c 0,-1.28934 0.9363,-2.28114 1.9576,-2.28114 1.1065,0 2.0427,1.09098 2.0427,2.28114 l 0,91.443886 c 0,1.19016 -0.9362,2.28114 -2.0427,2.28114 z"
     class="st0" /><path
     class="st1"
     d="m 13.995694,71.204574 c -1.13051,0 -2.00013,-1.12828 -2.00013,-2.35913 l 0,-15.18046 c 0,-1.33342 0.95658,-2.4617 2.00013,-2.4617 1.13051,0 2.00013,1.12828 2.00013,2.4617 l 0,15.18046 c 0,1.23085 -0.86962,2.35913 -2.00013,2.35913 z"
     id="path99"
     style="fill:#ff9955;fill-opacity:1" /><path
     class="st1"
     d="m 21.5472,63.204064 -15.1030099,0 c -1.32662,0 -2.44914,-0.93623 -2.44914,-1.95757 0,-1.02134 1.12252,-2.04269 2.44914,-2.04269 l 15.1030099,0 c 1.32661,0 2.44914,0.93623 2.44914,2.04269 0,1.10645 -1.12253,1.95757 -2.44914,1.95757 z"
     id="path101"
     style="fill:#ff9955;fill-opacity:1" /><path
     class="st1"
     d="m 101.95871,51.203294 c -1.1064,0 -1.9575,-1.12828 -1.9575,-2.35913 l 0,-15.18046 c 0,-1.33342 0.9362,-2.4617 1.9575,-2.4617 1.1065,0 2.0428,1.12828 2.0428,2.4617 l 0,15.18046 c -0.085,1.33342 -0.9363,2.35913 -2.0428,2.35913 z"
     id="path105"
     style="fill:#ff9955;fill-opacity:1" /><path
     class="st1"
     d="m 109.6307,43.202774 -15.258701,0 c -1.3403,0 -2.3713,-0.93623 -2.3713,-1.95757 0,-1.02134 1.1341,-2.04269 2.3713,-2.04269 l 15.258701,0 c 1.3403,0 2.3713,0.93623 2.3713,2.04269 0,1.10645 -1.031,1.95757 -2.3713,1.95757 z"
     id="path107"
     style="fill:#ff9955;fill-opacity:1" /><path
     class="st1"
     d="m 109.99913,79.205094 c -1.129,0 -1.9974,-1.13409 -1.9974,-2.37129 l 0,-15.25871 c 0,-1.34029 0.9553,-2.37129 1.9974,-2.37129 1.1289,0 1.9974,1.1341 1.9974,2.37129 l 0,15.25871 c 0.087,1.2372 -0.8685,2.37129 -1.9974,2.37129 z"
     id="path111"
     style="fill:#ff9955;fill-opacity:1" /><path
     class="st1"
     d="m 117.63121,71.204574 -15.2587,0 c -1.3403,0 -2.3713,-0.93623 -2.3713,-2.04268 0,-1.10646 1.1341,-1.95758 2.3713,-1.95758 l 15.2587,0 c 1.3403,0 2.3713,0.93623 2.3713,1.95758 0,1.02134 -1.031,2.04268 -2.3713,2.04268 z"
     id="path113"
     style="fill:#ff9955;fill-opacity:1" /><g
     transform="translate(-972.06248,-128.74528)"
     id="g115"><path
       class="st0"
       d="m 386,867 c -15.2,0 -30,-1.9 -41.7,-5.4 -8.2,-2.4 -12.8,-5 -15.3,-6.7 -0.8,-0.6 -1.2,-1.6 -0.9,-2.6 14.5,-48.9 31.2,-78.7 47.3,-107.6 l 1.7,-3.1 c 0.5,-0.9 1.1,-1.6 1.8,-2.3 9.3,-10.9 28.4,-16 48.5,-1.4 7.4,5.3 19.3,15.5 16.4,23.9 l 0,0 c -1.6,4.6 -5.2,7.2 -10.6,7.7 -4.4,0.5 -9.4,-0.4 -14.7,-1.3 -3.3,-0.5 -6.6,-1.1 -9.8,-1.3 11.6,21.9 23.8,47.6 35.1,85.4 0.3,1 -0.1,2 -0.9,2.6 -2.4,1.7 -7.1,4.3 -15.3,6.7 -11.6,3.5 -26.4,5.4 -41.6,5.4 z m -52.9,-15 c 2.2,1.3 6.1,3.3 12.5,5.1 11.2,3.3 25.6,5.2 40.3,5.2 14.8,0 29.1,-1.8 40.3,-5.2 6.3,-1.9 10.3,-3.8 12.5,-5.1 -11.6,-38.5 -24.2,-64.3 -36.1,-86.4 -0.4,-0.7 -0.4,-1.6 0,-2.3 0.4,-0.7 1.1,-1.2 1.9,-1.2 4.6,-0.2 9.7,0.6 14.6,1.5 11.1,1.8 18,2.5 20.1,-3.4 l 0,0 c 1.5,-4.4 -6.3,-12.5 -14.7,-18.6 -17.7,-12.8 -34.3,-8.6 -42.3,0.8 -0.1,0.1 -0.1,0.1 -0.2,0.2 -0.4,0.4 -0.7,0.8 -1,1.3 l -1.7,3.1 c -16.3,29.7 -31.9,57.7 -46.2,105 z m 108.4,-91 0,0 0,0 z"
       id="path117"
       style="fill:#1c3d61" /><path
       class="st0"
       d="m 386,884.4 c -23.7,0 -46.1,-3.1 -62.9,-8.6 -17.6,-5.8 -27.4,-13.9 -27.4,-22.7 0,-11.2 15.4,-21 42.1,-26.7 0.8,-0.2 1.7,0.1 2.3,0.7 0.6,0.6 0.7,1.5 0.4,2.3 -2.6,7.2 -5.1,14.8 -7.4,22.6 2.2,1.3 6.1,3.3 12.5,5.1 11.2,3.3 25.6,5.2 40.3,5.2 14.8,0 29.1,-1.8 40.3,-5.2 6.3,-1.9 10.3,-3.8 12.5,-5.1 -2.3,-7.7 -4.8,-15.3 -7.4,-22.6 -0.3,-0.8 -0.1,-1.7 0.4,-2.3 0.6,-0.6 1.4,-0.9 2.3,-0.7 26.8,5.7 42.1,15.4 42.1,26.7 0,8.8 -9.7,16.9 -27.4,22.7 -16.7,5.5 -39,8.6 -62.7,8.6 z m -51.3,-52.5 c -10,2.4 -18.4,5.5 -24.4,9.1 -4.5,2.7 -9.9,6.9 -9.9,12.1 0,6.6 8.8,13.2 24.1,18.3 16.4,5.4 38.2,8.4 61.4,8.4 23.2,0 45.1,-3 61.4,-8.4 15.3,-5.1 24.1,-11.7 24.1,-18.3 0,-5.1 -5.4,-9.4 -9.9,-12.1 -6,-3.5 -14.4,-6.7 -24.4,-9.1 2.3,6.6 4.5,13.5 6.6,20.5 0.3,1 -0.1,2 -0.9,2.6 -2.4,1.7 -7.1,4.3 -15.3,6.7 -11.6,3.5 -26.5,5.4 -41.7,5.4 -15.2,0 -30,-1.9 -41.7,-5.4 -8.2,-2.4 -12.8,-5 -15.3,-6.7 -0.8,-0.6 -1.2,-1.6 -0.9,-2.6 2.3,-7 4.5,-13.9 6.8,-20.5 z"
       id="path119"
       style="fill:#1c3d61" /><path
       class="st0"
       d="m 404.8,766.9 c -0.8,0 -1.6,-0.4 -2,-1.1 -3.7,-6.3 -6.4,-12.4 -6.5,-12.7 -0.5,-1.2 0,-2.6 1.2,-3.1 1.2,-0.5 2.6,0 3.1,1.2 0,0.1 2.7,6.2 6.2,12.1 0.7,1.1 0.3,2.6 -0.8,3.2 -0.4,0.3 -0.8,0.4 -1.2,0.4 z"
       id="path121"
       style="fill:#1c3d61" /><path
       class="st1"
       d="m 337.6,830.8 c -1.6,4.4 -3.1,9.1 -4.6,13.9 34.5,10.9 71.5,10.9 106,0 -1.5,-4.8 -3.1,-9.4 -4.6,-13.9 -31.7,9.1 -65.2,9.1 -96.8,0 z"
       id="path123"
       style="fill:#ed9339" /><path
       class="st0"
       d="m 386,855.2 c 0,0 0,0 0,0 -18.3,0 -36.3,-2.8 -53.7,-8.3 -1.2,-0.4 -1.9,-1.7 -1.5,-2.9 1.5,-4.8 3.1,-9.5 4.6,-14 0.4,-1.2 1.7,-1.8 2.9,-1.5 31.2,9 64.3,9 95.5,0 1.2,-0.3 2.5,0.3 2.9,1.5 1.6,4.5 3.2,9.2 4.6,14 0.4,1.2 -0.3,2.6 -1.5,2.9 -17.5,5.5 -35.6,8.3 -53.8,8.3 z m -50.1,-12.1 c 32.8,9.9 67.3,9.9 100.1,0 -1,-3.2 -2.1,-6.4 -3.2,-9.5 -15.4,4.2 -31.1,6.3 -46.9,6.3 -15.8,0 -31.5,-2.1 -46.9,-6.3 -1,3.1 -2.1,6.3 -3.1,9.5 z"
       id="path125"
       style="fill:#1c3d61" /></g><g
     transform="translate(-972.06248,-128.74528)"
     id="g127"><g
       id="g129"><g
         id="g131"><path
           class="st0"
           d="m 334.5,520.4 c -16,0 -29,-13 -29,-29 0,-16 13,-29 29,-29 16,0 29,13 29,29 0,16 -13,29 -29,29 z m 0,-53.2 c -13.4,0 -24.3,10.9 -24.3,24.3 0,13.4 10.9,24.3 24.3,24.3 13.4,0 24.3,-10.9 24.3,-24.3 0,-13.4 -10.9,-24.3 -24.3,-24.3 z"
           id="path133"
           style="fill:#1c3d61" /><path
           class="st0"
           d="m 350.4,509.6 c -0.4,0 -0.9,-0.1 -1.2,-0.3 l -14.7,-9.1 -14.7,9.1 c -0.9,0.5 -2,0.4 -2.8,-0.2 -0.8,-0.7 -1,-1.7 -0.7,-2.7 l 5.6,-13.9 -10.6,-6.6 c -0.9,-0.6 -1.3,-1.6 -1,-2.6 0.3,-1 1.2,-1.7 2.3,-1.7 l 13.8,0 5.9,-14.5 c 0.4,-0.9 1.2,-1.5 2.2,-1.5 1,0 1.8,0.6 2.2,1.5 l 5.9,14.5 13.8,0 c 1.1,0 2,0.7 2.3,1.7 0.3,1 -0.1,2.1 -1,2.6 l -10.6,6.6 5.6,13.9 c 0.4,0.9 0.1,2 -0.7,2.7 -0.5,0.3 -1.1,0.5 -1.6,0.5 z m -11.5,-12.2 6.6,4.1 -2.6,-6.5 -4,2.4 z M 326,495 l -2.6,6.5 6.6,-4.1 -4,-2.4 z m 1.8,-4.4 6.6,4.1 6.6,-4.1 -1.7,-4.3 -9.8,0 -1.7,4.3 z m 16.6,-4.3 0.7,1.8 2.9,-1.8 -3.6,0 z m -23.5,0 2.9,1.8 0.7,-1.8 -3.6,0 z m 10.6,-4.7 6,0 -3,-7.3 -3,7.3 z"
           id="path135"
           style="fill:#1c3d61" /></g><path
         class="st0"
         d="m 386,611.9 c -1.3,0 -2.4,-1.1 -2.4,-2.3 0,-5.2 -4.2,-9.5 -9.5,-9.5 l -91.1,0 c -1.3,0 -2.3,-1.1 -2.3,-2.3 l 0,-144.9 c 0,-1.3 1.1,-2.4 2.3,-2.4 l 91.2,0 c 7.8,0 14.2,6.4 14.2,14.2 l 0,144.9 c -0.1,1.3 -1.1,2.3 -2.4,2.3 z m -100.7,-16.5 88.8,0 c 3.6,0 6.9,1.4 9.5,3.6 l 0,-134.3 c 0,-5.2 -4.2,-9.5 -9.5,-9.5 l -88.8,0 0,140.2 z"
         id="path137"
         style="fill:#1c3d61" /><path
         class="st0"
         d="m 365.7,529.2 -62.4,0 c -1.3,0 -2.4,-1.1 -2.4,-2.4 0,-1.3 1.1,-2.3 2.4,-2.3 l 62.4,0 c 1.3,0 2.4,1.1 2.4,2.3 0,1.2 -1.1,2.4 -2.4,2.4 z"
         id="path139"
         style="fill:#1c3d61" /><path
         class="st0"
         d="m 365.7,556 -62.4,0 c -1.3,0 -2.4,-1.1 -2.4,-2.3 0,-1.3 1.1,-2.3 2.4,-2.3 l 62.4,0 c 1.3,0 2.4,1.1 2.4,2.3 -0.1,1.3 -1.1,2.3 -2.4,2.3 z"
         id="path141"
         style="fill:#1c3d61" /><path
         class="st0"
         d="m 365.7,582.8 -62.4,0 c -1.3,0 -2.4,-1.1 -2.4,-2.4 0,-1.3 1.1,-2.3 2.4,-2.3 l 62.4,0 c 1.3,0 2.4,1.1 2.4,2.3 -0.1,1.3 -1.1,2.4 -2.4,2.4 z"
         id="path143"
         style="fill:#1c3d61" /><path
         class="st0"
         d="m 386,611.9 c -1.3,0 -2.4,-1.1 -2.4,-2.3 l 0,-144.9 c 0,-7.8 6.4,-14.2 14.2,-14.2 l 91.2,0 c 1.3,0 2.4,1.1 2.4,2.4 l 0,144.9 c 0,1.3 -1.1,2.3 -2.4,2.3 l -91.2,0 c -5.2,0 -9.5,4.2 -9.5,9.5 0,1.3 -1,2.3 -2.3,2.3 z m 11.8,-156.7 c -5.2,0 -9.5,4.2 -9.5,9.5 l 0,134.4 c 2.5,-2.3 5.8,-3.6 9.5,-3.6 l 88.8,0 0,-140.3 -88.8,0 z"
         id="path145"
         style="fill:#1c3d61" /><g
         id="g147"><path
           class="st0"
           d="m 468.6,475.7 -62.4,0 c -1.3,0 -2.3,-1.1 -2.3,-2.4 0,-1.3 1.1,-2.4 2.3,-2.4 l 62.4,0 c 1.3,0 2.3,1.1 2.3,2.4 0,1.3 -1,2.4 -2.3,2.4 z"
           id="path149"
           style="fill:#1c3d61" /><path
           class="st0"
           d="m 468.6,502.4 -62.4,0 c -1.3,0 -2.3,-1.1 -2.3,-2.4 0,-1.3 1.1,-2.3 2.3,-2.3 l 62.4,0 c 1.3,0 2.3,1.1 2.3,2.3 0,1.2 -1,2.4 -2.3,2.4 z"
           id="path151"
           style="fill:#1c3d61" /><path
           class="st0"
           d="m 468.6,529.2 -62.4,0 c -1.3,0 -2.3,-1.1 -2.3,-2.4 0,-1.3 1.1,-2.3 2.3,-2.3 l 62.4,0 c 1.3,0 2.3,1.1 2.3,2.3 0,1.2 -1,2.4 -2.3,2.4 z"
           id="path153"
           style="fill:#1c3d61" /><path
           class="st0"
           d="m 468.6,556 -62.4,0 c -1.3,0 -2.3,-1.1 -2.3,-2.3 0,-1.3 1.1,-2.3 2.3,-2.3 l 62.4,0 c 1.3,0 2.3,1.1 2.3,2.3 0.1,1.3 -1,2.3 -2.3,2.3 z"
           id="path155"
           style="fill:#1c3d61" /><path
           class="st0"
           d="m 468.6,582.8 -62.4,0 c -1.3,0 -2.3,-1.1 -2.3,-2.4 0,-1.3 1.1,-2.3 2.3,-2.3 l 62.4,0 c 1.3,0 2.3,1.1 2.3,2.3 0.1,1.3 -1,2.4 -2.3,2.4 z"
           id="path157"
           style="fill:#1c3d61" /></g></g><polygon
       class="st1"
       points="422.6,597.8 401,597.8 401,609.6 411.8,603.7 422.6,609.6 "
       id="polygon159"
       style="fill:#ed9339" /><path
       class="st0"
       d="m 422.6,611.9 c -0.4,0 -0.8,-0.1 -1.1,-0.3 l -9.7,-5.3 -9.7,5.3 c -0.7,0.4 -1.6,0.4 -2.3,0 -0.7,-0.4 -1.2,-1.2 -1.2,-2 l 0,-11.8 c 0,-1.3 1.1,-2.3 2.4,-2.3 l 21.6,0 c 1.3,0 2.4,1.1 2.4,2.3 l 0,11.8 c 0,0.8 -0.4,1.6 -1.2,2 -0.4,0.2 -0.8,0.3 -1.2,0.3 z m -10.8,-10.6 c 0.4,0 0.8,0.1 1.1,0.3 l 7.3,4 0,-5.5 -16.9,0 0,5.5 7.3,-4 c 0.4,-0.2 0.8,-0.3 1.2,-0.3 z"
       id="path161"
       style="fill:#1c3d61" /></g><g
     transform="translate(-972.06248,-128.74528)"
     id="g163"><g
       id="g165"><path
         class="st1"
         d="m 708.7,98 c -27.5,0 -49.8,22.3 -49.8,49.8 0,27.5 22.3,49.8 49.8,49.8 27.5,0 49.8,-22.3 49.8,-49.8 0,-27.5 -22.3,-49.8 -49.8,-49.8 z m 0,89.8 c -22.1,0 -40,-17.9 -40,-40 0,-22.1 17.9,-40 40,-40 22.1,0 40,17.9 40,40 0,22.1 -17.9,40 -40,40 z"
         id="path167"
         style="fill:#ed9339" /><path
         class="st0"
         d="m 708.7,199.9 c -28.7,0 -52.1,-23.4 -52.1,-52.1 0,-28.7 23.4,-52.1 52.1,-52.1 28.7,0 52.1,23.4 52.1,52.1 0,28.7 -23.4,52.1 -52.1,52.1 z m 0,-99.6 c -26.2,0 -47.4,21.3 -47.4,47.4 0,26.1 21.3,47.4 47.4,47.4 26.1,0 47.4,-21.3 47.4,-47.4 0,-26.1 -21.3,-47.4 -47.4,-47.4 z m 0,89.8 c -23.4,0 -42.4,-19 -42.4,-42.4 0,-23.4 19,-42.4 42.4,-42.4 23.4,0 42.4,19 42.4,42.4 0,23.4 -19,42.4 -42.4,42.4 z m 0,-80.1 c -20.8,0 -37.7,16.9 -37.7,37.7 0,20.8 16.9,37.7 37.7,37.7 20.8,0 37.7,-16.9 37.7,-37.7 0,-20.7 -16.9,-37.7 -37.7,-37.7 z"
         id="path169"
         style="fill:#1c3d61" /><path
         class="st0"
         d="m 708.7,160.5 c -8.2,0 -14.9,-7.9 -14.9,-17.7 0,-4.9 1.6,-14.1 3.8,-21.4 3.2,-10.8 6.8,-16.1 11.1,-16.1 4.3,0 7.9,5.3 11.1,16.1 2.1,7.3 3.8,16.5 3.8,21.4 0,9.8 -6.7,17.7 -14.9,17.7 z m 0,-50.5 c -0.7,0 -3.6,2.3 -6.6,12.7 -2.2,7.6 -3.6,16.2 -3.6,20.1 0,7.2 4.6,13 10.2,13 5.6,0 10.2,-5.8 10.2,-13 0,-3.9 -1.3,-12.5 -3.6,-20.1 -3,-10.3 -5.9,-12.7 -6.6,-12.7 z"
         id="path171"
         style="fill:#1c3d61" /><path
         class="st0"
         d="m 707,160.9 c -3.4,0 -6.8,-0.9 -10,-2.8 -4.2,-2.4 -11.4,-8.5 -16.7,-14 -7.8,-8.2 -10.5,-13.9 -8.4,-17.7 2.2,-3.7 8.5,-4.3 19.5,-1.6 7.4,1.8 16.2,5 20.4,7.4 4,2.3 7.1,5.8 8.6,9.8 1.6,4.2 1.3,8.4 -0.7,11.9 -2,3.5 -5.6,5.9 -10,6.6 -0.8,0.4 -1.8,0.4 -2.7,0.4 z M 680.1,128 c -2.7,0 -3.8,0.5 -4,0.9 -0.4,0.6 0.2,4.3 7.7,12.1 5.5,5.8 12.2,11.2 15.6,13.1 3.1,1.8 6.5,2.5 9.7,2 3,-0.5 5.4,-2 6.7,-4.3 1.3,-2.3 1.5,-5.1 0.4,-7.9 -1.1,-3 -3.5,-5.6 -6.6,-7.4 -3.4,-1.9 -11.5,-5.1 -19.2,-6.9 -4.8,-1.2 -8.1,-1.6 -10.3,-1.6 z"
         id="path173"
         style="fill:#1c3d61" /><path
         class="st0"
         d="m 680.1,172.2 c -4.2,0 -6.9,-1.1 -8.1,-3.3 -2.2,-3.7 0.6,-9.5 8.4,-17.7 5.3,-5.5 12.4,-11.5 16.7,-14 4,-2.3 8.6,-3.2 12.8,-2.5 4.4,0.7 8,3.1 10,6.6 2,3.5 2.3,7.8 0.7,11.9 -1.5,4 -4.6,7.5 -8.6,9.8 -4.2,2.4 -13,5.6 -20.4,7.4 -4.7,1.2 -8.5,1.8 -11.5,1.8 z m 26.9,-33 c -2.6,0 -5.2,0.7 -7.6,2.1 -3.4,1.9 -10.1,7.4 -15.6,13.1 -7.5,7.8 -8.1,11.4 -7.7,12.1 0.4,0.6 3.8,1.9 14.3,-0.6 7.7,-1.9 15.8,-5 19.2,-6.9 3.1,-1.8 5.4,-4.4 6.6,-7.4 1.1,-2.8 0.9,-5.6 -0.4,-7.9 -1.3,-2.3 -3.7,-3.8 -6.7,-4.3 -0.7,-0.1 -1.4,-0.2 -2.1,-0.2 z"
         id="path175"
         style="fill:#1c3d61" /><path
         class="st0"
         d="m 708.7,190.1 c -4.3,0 -7.9,-5.3 -11.1,-16.1 -2.1,-7.3 -3.8,-16.5 -3.8,-21.4 0,-9.8 6.7,-17.7 14.9,-17.7 8.2,0 14.9,7.9 14.9,17.7 0,4.9 -1.6,14.1 -3.8,21.4 -3.2,10.9 -6.8,16.1 -11.1,16.1 z m 0,-50.5 c -5.6,0 -10.2,5.8 -10.2,13 0,3.9 1.3,12.5 3.6,20.1 3,10.4 5.9,12.7 6.6,12.7 0.7,0 3.6,-2.3 6.6,-12.7 2.2,-7.6 3.6,-16.2 3.6,-20.1 0,-7.1 -4.6,-13 -10.2,-13 z"
         id="path177"
         style="fill:#1c3d61" /><path
         class="st0"
         d="m 737.3,172.2 c -3,0 -6.8,-0.6 -11.3,-1.7 -7.4,-1.8 -16.2,-5 -20.4,-7.4 -4,-2.3 -7.1,-5.8 -8.6,-9.8 -1.6,-4.2 -1.3,-8.4 0.7,-11.9 2,-3.5 5.6,-5.9 10,-6.6 4.2,-0.7 8.8,0.2 12.8,2.5 4.2,2.4 11.4,8.5 16.7,14 7.8,8.2 10.5,13.9 8.4,17.7 -1.5,2.1 -4.1,3.2 -8.3,3.2 z m -26.9,-33 c -0.7,0 -1.4,0.1 -2.1,0.2 -3,0.5 -5.4,2 -6.7,4.3 -1.3,2.3 -1.5,5.1 -0.4,7.9 1.1,3 3.5,5.6 6.6,7.4 3.4,1.9 11.5,5.1 19.2,6.9 10.5,2.5 13.9,1.3 14.3,0.6 0.4,-0.6 -0.2,-4.3 -7.7,-12.1 -5.5,-5.8 -12.2,-11.2 -15.6,-13.1 -2.4,-1.3 -5,-2.1 -7.6,-2.1 z"
         id="path179"
         style="fill:#1c3d61" /><path
         class="st0"
         d="m 710.4,160.9 c -0.9,0 -1.9,-0.1 -2.8,-0.2 -4.4,-0.7 -8,-3.1 -10,-6.6 -2,-3.5 -2.3,-7.8 -0.7,-11.9 1.5,-4 4.6,-7.5 8.6,-9.8 4.2,-2.4 13,-5.6 20.4,-7.4 11,-2.7 17.3,-2.1 19.5,1.6 2.2,3.7 -0.6,9.5 -8.4,17.7 -5.3,5.5 -12.4,11.5 -16.7,14 -3.1,1.7 -6.5,2.6 -9.9,2.6 z M 737.3,128 c -2.2,0 -5.5,0.4 -10.3,1.5 -7.7,1.9 -15.8,5 -19.2,6.9 -3.1,1.8 -5.4,4.4 -6.6,7.4 -1.1,2.8 -0.9,5.6 0.4,7.9 1.3,2.3 3.7,3.8 6.7,4.3 3.2,0.5 6.6,-0.2 9.7,-2 3.4,-1.9 10.1,-7.4 15.6,-13.1 7.5,-7.8 8.1,-11.4 7.7,-12.1 -0.2,-0.3 -1.3,-0.8 -4,-0.8 z"
         id="path181"
         style="fill:#1c3d61" /></g><g
       id="g183"><g
         id="g185"><path
           class="st0"
           d="m 708.7,310.7 c -0.6,0 -1.1,-0.2 -1.6,-0.6 l -13.9,-12.8 c -0.5,-0.4 -0.8,-1.1 -0.8,-1.7 l 0,-46.9 c 0,-0.6 0.3,-1.2 0.7,-1.7 L 707,233.5 c 0.9,-0.9 2.4,-0.9 3.3,0 l 13.9,13.5 c 0.5,0.4 0.7,1.1 0.7,1.7 l 0,46.9 c 0,0.7 -0.3,1.3 -0.8,1.7 L 710.3,310 c -0.5,0.4 -1,0.7 -1.6,0.7 z m -11.5,-16.2 11.5,10.6 11.5,-10.6 0,-44.8 -11.5,-11.2 -11.5,11.2 0,44.8 z m 25.4,1 0,0 0,0 z"
           id="path187"
           style="fill:#1c3d61" /><path
           class="st0"
           d="m 722.6,274.1 c -0.6,0 -1.2,-0.2 -1.6,-0.7 l -12.2,-11.9 -12.2,11.9 c -0.9,0.9 -2.4,0.9 -3.3,-0.1 -0.9,-0.9 -0.9,-2.4 0.1,-3.3 l 13.9,-13.5 c 0.9,-0.9 2.4,-0.9 3.3,0 l 13.9,13.5 c 0.9,0.9 1,2.4 0.1,3.3 -0.8,0.5 -1.4,0.8 -2,0.8 z"
           id="path189"
           style="fill:#1c3d61" /><path
           class="st0"
           d="m 722.6,295.7 c -0.6,0 -1.2,-0.2 -1.6,-0.7 L 708.8,283.1 696.4,295 c -0.9,0.9 -2.4,0.9 -3.3,-0.1 -0.9,-0.9 -0.9,-2.4 0.1,-3.3 l 13.9,-13.5 c 0.9,-0.9 2.4,-0.9 3.3,0 l 13.9,13.5 c 0.9,0.9 1,2.4 0.1,3.3 -0.6,0.6 -1.2,0.8 -1.8,0.8 z"
           id="path191"
           style="fill:#1c3d61" /><path
           class="st0"
           d="m 708.7,310.7 c -1.3,0 -2.3,-1.1 -2.3,-2.4 l 0,-80.9 c 0,-1.3 1.1,-2.3 2.3,-2.3 1.2,0 2.3,1.1 2.3,2.3 l 0,80.9 c 0,1.3 -1,2.4 -2.3,2.4 z"
           id="path193"
           style="fill:#1c3d61" /></g><path
         class="st0"
         d="m 711.7,226.8 -6.1,0 c -3.4,0 -6.1,-2.7 -6.1,-6.1 0,-3.4 2.7,-6.1 6.1,-6.1 l 6.1,0 c 3.4,0 6.1,2.7 6.1,6.1 0,3.3 -2.7,6.1 -6.1,6.1 z m -6,-7.6 c -0.8,0 -1.4,0.6 -1.4,1.4 0,0.8 0.6,1.4 1.4,1.4 l 6.1,0 c 0.8,0 1.4,-0.6 1.4,-1.4 0,-0.8 -0.6,-1.4 -1.4,-1.4 l -6.1,0 z"
         id="path195"
         style="fill:#1c3d61" /><path
         class="st0"
         d="m 708.7,219.2 c -1.3,0 -2.3,-1.1 -2.3,-2.4 l 0,-19.4 c 0,-1.3 1.1,-2.3 2.3,-2.3 1.2,0 2.3,1.1 2.3,2.3 l 0,19.4 c 0,1.4 -1,2.4 -2.3,2.4 z"
         id="path197"
         style="fill:#1c3d61" /></g><g
       id="g199"><g
         id="g201"><g
           id="g203"><path
             class="st0"
             d="m 750.7,283.7 c -0.6,0 -1.1,-0.2 -1.6,-0.6 l -13.9,-12.8 c -0.5,-0.4 -0.8,-1.1 -0.8,-1.7 l 0,-46.9 c 0,-0.6 0.3,-1.2 0.7,-1.7 L 749,206.5 c 0.9,-0.9 2.4,-0.9 3.3,0 l 13.9,13.5 c 0.5,0.4 0.7,1.1 0.7,1.7 l 0,46.9 c 0,0.7 -0.3,1.3 -0.8,1.7 l -13.9,12.8 c -0.4,0.4 -0.9,0.6 -1.5,0.6 z m -11.5,-16.1 11.5,10.6 11.5,-10.6 0,-44.8 -11.5,-11.2 -11.5,11.2 0,44.8 z m 25.4,1 0,0 0,0 z"
             id="path205"
             style="fill:#1c3d61" /><path
             class="st0"
             d="m 764.6,247.1 c -0.6,0 -1.2,-0.2 -1.6,-0.7 l -12.2,-11.9 -12.2,11.9 c -0.9,0.9 -2.4,0.9 -3.3,-0.1 -0.9,-0.9 -0.9,-2.4 0.1,-3.3 l 13.9,-13.5 c 0.9,-0.9 2.4,-0.9 3.3,0 l 13.9,13.5 c 0.9,0.9 1,2.4 0.1,3.3 -0.8,0.6 -1.4,0.8 -2,0.8 z"
             id="path207"
             style="fill:#1c3d61" /><path
             class="st0"
             d="m 764.6,268.8 c -0.6,0 -1.2,-0.2 -1.6,-0.7 l -12.2,-11.9 -12.2,11.9 c -0.9,0.9 -2.4,0.9 -3.3,-0.1 -0.9,-0.9 -0.9,-2.4 0.1,-3.3 l 13.9,-13.5 c 0.9,-0.9 2.4,-0.9 3.3,0 l 13.9,13.5 c 0.9,0.9 1,2.4 0.1,3.3 -0.8,0.6 -1.4,0.8 -2,0.8 z"
             id="path209"
             style="fill:#1c3d61" /><path
             class="st0"
             d="m 750.7,283.7 c -1.3,0 -2.4,-1.1 -2.4,-2.3 l 0,-80.9 c 0,-1.3 1.1,-2.3 2.4,-2.3 1.3,0 2.3,1.1 2.3,2.3 l 0,80.9 c 0,1.3 -1,2.3 -2.3,2.3 z"
             id="path211"
             style="fill:#1c3d61" /></g><path
           class="st0"
           d="m 753.7,199.9 -6.1,0 c -3.4,0 -6.1,-2.7 -6.1,-6.1 0,-3.4 2.7,-6.1 6.1,-6.1 l 6.1,0 c 3.4,0 6.1,2.7 6.1,6.1 0,3.3 -2.7,6.1 -6.1,6.1 z m -6.1,-7.6 c -0.8,0 -1.4,0.6 -1.4,1.4 0,0.8 0.6,1.4 1.4,1.4 l 6.1,0 c 0.8,0 1.4,-0.6 1.4,-1.4 0,-0.8 -0.6,-1.4 -1.4,-1.4 l -6.1,0 z"
           id="path213"
           style="fill:#1c3d61" /><path
           class="st0"
           d="m 750.7,192.3 c -1.3,0 -2.4,-1.1 -2.4,-2.3 l 0,-15.1 c 0,-1.3 1.1,-2.4 2.4,-2.4 1.3,0 2.3,1.1 2.3,2.4 l 0,15.1 c 0,1.3 -1,2.3 -2.3,2.3 z"
           id="path215"
           style="fill:#1c3d61" /></g><g
         id="g217"><g
           id="g219"><path
             class="st0"
             d="m 666.7,283.7 c -0.6,0 -1.1,-0.2 -1.6,-0.6 l -13.9,-12.8 c -0.5,-0.4 -0.8,-1.1 -0.8,-1.7 l 0,-46.9 c 0,-0.6 0.3,-1.2 0.7,-1.7 L 665,206.5 c 0.9,-0.9 2.4,-0.9 3.3,0 l 13.9,13.5 c 0.5,0.4 0.7,1.1 0.7,1.7 l 0,46.9 c 0,0.7 -0.3,1.3 -0.8,1.7 l -13.9,12.8 c -0.4,0.4 -0.9,0.6 -1.5,0.6 z m -11.5,-16.1 11.5,10.6 11.5,-10.6 0,-44.8 -11.5,-11.2 -11.5,11.2 0,44.8 z m 25.4,1 0,0 0,0 z"
             id="path221"
             style="fill:#1c3d61" /><path
             class="st0"
             d="m 680.6,247.1 c -0.6,0 -1.2,-0.2 -1.6,-0.7 l -12.2,-11.9 -12.2,11.9 c -0.9,0.9 -2.4,0.9 -3.3,-0.1 -0.9,-0.9 -0.9,-2.4 0.1,-3.3 l 13.9,-13.5 c 0.9,-0.9 2.4,-0.9 3.3,0 l 13.9,13.5 c 0.9,0.9 1,2.4 0.1,3.3 -0.8,0.6 -1.4,0.8 -2,0.8 z"
             id="path223"
             style="fill:#1c3d61" /><path
             class="st0"
             d="m 680.6,268.8 c -0.6,0 -1.2,-0.2 -1.6,-0.7 l -12.2,-11.9 -12.2,11.9 c -0.9,0.9 -2.4,0.9 -3.3,-0.1 -0.9,-0.9 -0.9,-2.4 0.1,-3.3 l 13.9,-13.5 c 0.9,-0.9 2.4,-0.9 3.3,0 l 13.9,13.5 c 0.9,0.9 1,2.4 0.1,3.3 -0.8,0.6 -1.4,0.8 -2,0.8 z"
             id="path225"
             style="fill:#1c3d61" /><path
             class="st0"
             d="m 666.7,283.7 c -1.3,0 -2.4,-1.1 -2.4,-2.3 l 0,-80.9 c 0,-1.3 1.1,-2.3 2.4,-2.3 1.3,0 2.3,1.1 2.3,2.3 l 0,80.9 c 0,1.3 -1,2.3 -2.3,2.3 z"
             id="path227"
             style="fill:#1c3d61" /></g><path
           class="st0"
           d="m 669.7,199.9 -6.1,0 c -3.4,0 -6.1,-2.7 -6.1,-6.1 0,-3.4 2.7,-6.1 6.1,-6.1 l 6.1,0 c 3.4,0 6.1,2.7 6.1,6.1 0,3.3 -2.7,6.1 -6.1,6.1 z m -6,-7.6 c -0.8,0 -1.4,0.6 -1.4,1.4 0,0.8 0.6,1.4 1.4,1.4 l 6.1,0 c 0.8,0 1.4,-0.6 1.4,-1.4 0,-0.8 -0.6,-1.4 -1.4,-1.4 l -6.1,0 z"
           id="path229"
           style="fill:#1c3d61" /><path
           class="st0"
           d="m 666.7,192.3 c -1.3,0 -2.4,-1.1 -2.4,-2.3 l 0,-15.1 c 0,-1.3 1.1,-2.4 2.4,-2.4 1.3,0 2.3,1.1 2.3,2.4 l 0,15.1 c 0,1.3 -1,2.3 -2.3,2.3 z"
           id="path231"
           style="fill:#1c3d61" /></g></g></g><g
     transform="translate(-972.06248,-128.74528)"
     id="g233"><rect
       x="995.09998"
       y="568.79999"
       class="st0"
       width="72.599998"
       height="14.4"
       id="rect235"
       style="fill:#1c3d61" /><rect
       x="976.70001"
       y="590.5"
       class="st0"
       width="109.4"
       height="19.1"
       id="rect237"
       style="fill:#1c3d61" /><path
       class="st0"
       d="m 1086.1,611.9 -109.4,0 c -1.3,0 -2.3,-1.1 -2.3,-2.3 l 0,-26.4 c 0,-1.3 1.1,-2.3 2.3,-2.3 l 109.4,0 c 1.3,0 2.3,1.1 2.3,2.3 l 0,26.4 c 0.1,1.3 -1,2.3 -2.3,2.3 z m -107,-4.7 104.7,0 0,-21.7 -104.7,0 0,21.7 z"
       id="path239"
       style="fill:#1c3d61" /><path
       class="st0"
       d="m 1067.6,571.1 -72.3,0 c -0.5,0 -0.9,-0.1 -1.3,-0.4 -17.7,-12.3 -28.2,-32.5 -28.2,-53.9 0,-36.2 29.5,-65.7 65.7,-65.7 36.2,0 65.7,29.5 65.7,65.7 0,21.5 -10.5,41.7 -28.2,53.9 -0.5,0.3 -1,0.4 -1.4,0.4 z m -71.6,-4.7 70.8,0 c 16,-11.5 25.6,-30 25.6,-49.7 0,-33.6 -27.4,-61 -61,-61 -33.6,0 -61,27.4 -61,61 0,19.8 9.6,38.3 25.6,49.7 z"
       id="path241"
       style="fill:#1c3d61" /><path
       class="st0"
       d="m 1067.7,585.5 -72.6,0 c -1.3,0 -2.4,-1.1 -2.4,-2.4 l 0,-14.4 c 0,-1.3 1.1,-2.3 2.4,-2.3 l 72.6,0 c 1.3,0 2.3,1.1 2.3,2.3 l 0,14.4 c 0.1,1.4 -1,2.4 -2.3,2.4 z m -70.2,-4.7 67.9,0 0,-9.7 -67.9,0 0,9.7 z"
       id="path243"
       style="fill:#1c3d61" /><g
       id="g245"><path
         class="st1"
         d="m 995.1,516 c -1.3,0 -2.4,-1.1 -2.4,-2.3 l 0,-19.2 c 0,-1.3 1.1,-2.4 2.4,-2.4 1.3,0 2.3,1.1 2.3,2.4 l 0,19.2 c 0.1,1.2 -1,2.3 -2.3,2.3 z"
         id="path247"
         style="fill:#ed9339" /><path
         class="st1"
         d="m 1004.7,506.4 -19.2,0 c -1.3,0 -2.3,-1.1 -2.3,-2.4 0,-1.3 1.1,-2.4 2.3,-2.4 l 19.2,0 c 1.3,0 2.4,1.1 2.4,2.4 0,1.3 -1.1,2.4 -2.4,2.4 z"
         id="path249"
         style="fill:#ed9339" /></g><g
       id="g251"><path
         class="st1"
         d="m 977.7,470.5 c -1.3,0 -2.3,-1.1 -2.3,-2.4 l 0,-19.2 c 0,-1.3 1.1,-2.3 2.3,-2.3 1.3,0 2.3,1.1 2.3,2.3 l 0,19.2 c 0,1.4 -1,2.4 -2.3,2.4 z"
         id="path253"
         style="fill:#ed9339" /><path
         class="st1"
         d="m 987.3,460.9 -19.2,0 c -1.3,0 -2.3,-1.1 -2.3,-2.3 0,-1.2 1.1,-2.4 2.3,-2.4 l 19.2,0 c 1.3,0 2.4,1.1 2.4,2.4 0,1.3 -1.1,2.3 -2.4,2.3 z"
         id="path255"
         style="fill:#ed9339" /></g><g
       id="g257"><path
         class="st1"
         d="m 1064.9,453.6 c -1.3,0 -2.3,-1.1 -2.3,-2.3 l 0,-19.3 c 0,-1.3 1.1,-2.4 2.3,-2.4 1.2,0 2.3,1.1 2.3,2.4 l 0,19.2 c 0.1,1.3 -1,2.4 -2.3,2.4 z"
         id="path259"
         style="fill:#ed9339" /><path
         class="st1"
         d="m 1074.5,444 -19.2,0 c -1.3,0 -2.3,-1.1 -2.3,-2.4 0,-1.3 1.1,-2.3 2.3,-2.3 l 19.2,0 c 1.3,0 2.3,1.1 2.3,2.3 0,1.2 -1,2.4 -2.3,2.4 z"
         id="path261"
         style="fill:#ed9339" /></g></g><g
     transform="translate(-972.06248,-128.74528)"
     id="g263"><path
       class="st0"
       d="m 683.3,816.3 c -0.1,0 -0.3,0 -0.4,0 -1,-0.2 -1.8,-1 -1.9,-2 l -6.2,-44.6 c -0.1,-0.9 0.3,-1.9 1.2,-2.4 0.8,-0.5 1.9,-0.4 2.6,0.2 l 19.1,14.9 2.5,-4.7 c 0.6,-1.1 2,-1.6 3.2,-1 1.1,0.6 1.6,2 1,3.2 l -2.9,5.4 2.4,1.9 c 1,0.8 1.2,2.3 0.4,3.3 -0.8,1 -2.3,1.2 -3.3,0.4 l -1.8,-1.4 -13.9,25.5 c -0.4,0.8 -1.2,1.3 -2,1.3 z m -3.1,-41.6 4.4,31.8 10.8,-20 -15.2,-11.8 z"
       id="path265"
       style="fill:#1c3d61" /><path
       class="st0"
       d="m 702.1,799 c 0,0 0,0 0,0 l -36.8,-1.1 c -1.1,0 -2,-0.8 -2.2,-1.8 -0.3,-1 0.2,-2.1 1.1,-2.6 l 37,-21.4 c 1.1,-0.6 2.6,-0.3 3.2,0.9 0.6,1.1 0.3,2.6 -0.9,3.2 l -29.8,17.2 28.5,0.8 c 1.3,0 2.3,1.1 2.3,2.4 -0.1,1.4 -1.1,2.4 -2.4,2.4 z"
       id="path267"
       style="fill:#1c3d61" /><path
       class="st0"
       d="m 682.8,846.6 c -0.8,0 -1.6,-0.4 -2,-1.2 -0.6,-1.1 -0.3,-2.6 0.9,-3.2 l 19.5,-11.3 c 1.1,-0.6 2.6,-0.3 3.2,0.9 0.6,1.1 0.3,2.6 -0.9,3.2 L 684,846.3 c -0.4,0.2 -0.8,0.3 -1.2,0.3 z"
       id="path269"
       style="fill:#1c3d61" /><path
       class="st0"
       d="m 691.7,861.9 c -0.8,0 -1.6,-0.4 -2,-1.2 -0.6,-1.1 -0.3,-2.6 0.9,-3.2 L 709,846.9 c 1.1,-0.6 2.6,-0.3 3.2,0.9 0.6,1.1 0.3,2.6 -0.9,3.2 l -18.4,10.6 c -0.4,0.2 -0.8,0.3 -1.2,0.3 z"
       id="path271"
       style="fill:#1c3d61" /><path
       class="st0"
       d="m 651,787.9 c -0.1,0 -0.3,0 -0.4,0 -1.3,-0.2 -2.1,-1.4 -1.9,-2.7 l 0.7,-4.3 -4.1,-1.5 c -1.1,-0.4 -1.7,-1.5 -1.5,-2.6 l 1,-6.2 c 0.2,-1.3 1.4,-2.1 2.7,-1.9 1.3,0.2 2.1,1.4 1.9,2.7 l -0.7,4.3 4.1,1.5 c 1.1,0.4 1.7,1.5 1.5,2.6 l -1,6.2 c -0.2,1.1 -1.2,1.9 -2.3,1.9 z"
       id="path273"
       style="fill:#1c3d61" /><path
       class="st0"
       d="m 700.7,759.2 c -0.1,0 -0.3,0 -0.4,0 -1.3,-0.2 -2.1,-1.4 -1.9,-2.7 l 0.7,-4.3 -4.1,-1.5 c -1.1,-0.4 -1.7,-1.5 -1.5,-2.6 l 1,-6.2 c 0.2,-1.3 1.4,-2.1 2.7,-1.9 1.3,0.2 2.1,1.4 1.9,2.7 l -0.7,4.3 4.1,1.5 c 1.1,0.4 1.7,1.5 1.5,2.6 l -1,6.2 c -0.2,1.1 -1.2,1.9 -2.3,1.9 z"
       id="path275"
       style="fill:#1c3d61" /><path
       class="st0"
       d="m 669.5,762.4 c -0.1,0 -0.3,0 -0.4,0 -1.3,-0.2 -2.1,-1.4 -1.9,-2.7 l 0.7,-4.3 -4.1,-1.5 c -1.1,-0.4 -1.7,-1.5 -1.5,-2.6 l 1,-6.2 c 0.2,-1.3 1.4,-2.1 2.7,-1.9 1.3,0.2 2.1,1.4 1.9,2.7 l -0.7,4.3 4.1,1.5 c 1.1,0.4 1.7,1.5 1.5,2.6 l -1,6.2 c -0.2,1.1 -1.2,1.9 -2.3,1.9 z"
       id="path277"
       style="fill:#1c3d61" /><g
       id="g279"><path
         class="st0"
         d="m 779.6,851.9 -66,0 c -7.4,0 -13.3,-6 -13.3,-13.3 l 0,-120 c 0,-7.4 6,-13.3 13.3,-13.3 l 66,0 c 7.4,0 13.3,6 13.3,13.3 l 0,119.9 c 0.1,7.4 -5.9,13.4 -13.3,13.4 z M 713.6,710 c -4.8,0 -8.6,3.9 -8.6,8.6 l 0,119.9 c 0,4.8 3.9,8.6 8.6,8.6 l 66,0 c 4.8,0 8.6,-3.9 8.6,-8.6 l 0,-119.9 c 0,-4.8 -3.9,-8.6 -8.6,-8.6 l -66,0 z"
         id="path281"
         style="fill:#1c3d61" /><circle
         transform="matrix(0.866,-0.5,0.5,0.866,-282.5041,475.8138)"
         class="st1"
         cx="746.59998"
         cy="765.09998"
         id="ellipse283"
         r="19.9"
         style="fill:#ed9339" /><path
         class="st0"
         d="m 746.7,787.3 c -7.7,0 -15.2,-4 -19.3,-11.1 -6.1,-10.6 -2.5,-24.3 8.1,-30.4 l 0,0 c 10.6,-6.1 24.3,-2.5 30.4,8.1 6.1,10.6 2.5,24.3 -8.1,30.4 -3.5,2.1 -7.4,3 -11.1,3 z m -8.8,-37.4 c -8.4,4.8 -11.3,15.6 -6.4,24 3.2,5.6 9.2,8.8 15.2,8.8 3,0 6,-0.8 8.7,-2.3 8.4,-4.8 11.3,-15.6 6.4,-24 -4.8,-8.5 -15.6,-11.4 -23.9,-6.5 l 0,0 z"
         id="path285"
         style="fill:#1c3d61" /><path
         class="st0"
         d="m 779.1,810.3 -65,0 c -1.3,0 -2.3,-1.1 -2.3,-2.4 0,-1.3 1.1,-2.3 2.3,-2.3 l 65,0 c 1.3,0 2.4,1.1 2.4,2.3 0,1.2 -1.1,2.4 -2.4,2.4 z"
         id="path287"
         style="fill:#1c3d61" /><path
         class="st0"
         d="m 779.1,827.9 -65,0 c -1.3,0 -2.3,-1.1 -2.3,-2.3 0,-1.3 1.1,-2.4 2.3,-2.4 l 65,0 c 1.3,0 2.4,1.1 2.4,2.4 0,1.3 -1.1,2.3 -2.4,2.3 z"
         id="path289"
         style="fill:#1c3d61" /><g
         id="g291"><path
           class="st0"
           d="m 737.4,748.2 c -0.8,0 -1.6,-0.4 -2,-1.2 -0.5,-0.8 -0.9,-1 -1.9,-1.3 -1.3,-0.5 -3.1,-1.1 -4.4,-3.4 -1.3,-2.3 -1,-4.2 -0.7,-5.5 0.2,-1 0.3,-1.5 -0.2,-2.3 -0.6,-1.1 -0.3,-2.6 0.9,-3.2 1.1,-0.6 2.6,-0.3 3.2,0.9 1.3,2.3 1,4.2 0.7,5.5 -0.2,1 -0.3,1.5 0.2,2.3 0.5,0.8 0.9,1 1.9,1.3 1.3,0.5 3.1,1.1 4.4,3.4 0.6,1.1 0.3,2.6 -0.9,3.2 -0.4,0.2 -0.8,0.3 -1.2,0.3 z"
           id="path293"
           style="fill:#1c3d61" /><path
           class="st0"
           d="m 718.1,769 c -2.7,0 -4.1,-1.2 -5.2,-2.1 -0.8,-0.7 -1.2,-1 -2.1,-1 -1.3,0 -2.3,-1.1 -2.3,-2.3 0,-1.2 1.1,-2.3 2.3,-2.3 2.7,0 4.1,1.2 5.2,2.1 0.8,0.7 1.2,1 2.1,1 0.9,0 1.3,-0.3 2.1,-1 1,-0.9 2.5,-2.1 5.2,-2.1 1.3,0 2.4,1.1 2.4,2.3 0,1.2 -1.1,2.3 -2.4,2.3 -0.9,0 -1.3,0.3 -2.1,1 -1.1,0.8 -2.5,2.1 -5.2,2.1 z"
           id="path295"
           style="fill:#1c3d61" /><path
           class="st0"
           d="m 727.4,797.6 c -0.4,0 -0.8,-0.1 -1.2,-0.3 -1.1,-0.6 -1.5,-2.1 -0.9,-3.2 1.3,-2.3 3.1,-3 4.4,-3.4 1,-0.3 1.4,-0.5 1.9,-1.3 0.5,-0.8 0.4,-1.3 0.2,-2.3 -0.3,-1.4 -0.6,-3.2 0.7,-5.5 0.6,-1.1 2.1,-1.5 3.2,-0.9 1.1,0.6 1.5,2.1 0.9,3.2 -0.5,0.8 -0.4,1.3 -0.2,2.3 0.3,1.4 0.6,3.2 -0.7,5.5 -1.3,2.3 -3.1,3 -4.4,3.4 -1,0.3 -1.4,0.5 -1.9,1.3 -0.4,0.8 -1.2,1.2 -2,1.2 z"
           id="path297"
           style="fill:#1c3d61" /><path
           class="st0"
           d="m 763.2,799.2 c -0.8,0 -1.6,-0.4 -2,-1.2 -1.3,-2.3 -1,-4.2 -0.7,-5.5 0.2,-1 0.3,-1.5 -0.2,-2.3 -0.5,-0.8 -0.9,-1 -1.9,-1.3 -1.3,-0.5 -3.1,-1.1 -4.4,-3.4 -0.6,-1.1 -0.3,-2.6 0.9,-3.2 1.1,-0.6 2.6,-0.3 3.2,0.9 0.5,0.8 0.9,1 1.9,1.3 1.3,0.5 3.1,1.1 4.4,3.4 1.3,2.3 1,4.2 0.7,5.5 -0.2,1 -0.3,1.5 0.2,2.3 0.6,1.1 0.3,2.6 -0.9,3.2 -0.4,0.2 -0.8,0.3 -1.2,0.3 z"
           id="path299"
           style="fill:#1c3d61" /><path
           class="st0"
           d="m 782.4,769 c -2.7,0 -4.1,-1.2 -5.2,-2.1 -0.8,-0.7 -1.2,-1 -2.1,-1 -0.9,0 -1.3,0.3 -2.1,1 -1,0.9 -2.5,2.1 -5.2,2.1 -1.3,0 -2.3,-1.1 -2.3,-2.3 0,-1.3 1.1,-2.4 2.3,-2.4 0.9,0 1.3,-0.3 2.1,-1 1,-0.9 2.5,-2.1 5.2,-2.1 2.7,0 4.1,1.2 5.2,2.1 0.8,0.7 1.2,1 2.1,1 1.3,0 2.3,1.1 2.3,2.4 0,1.2 -1,2.3 -2.3,2.3 z"
           id="path301"
           style="fill:#1c3d61" /><path
           class="st0"
           d="m 758.6,749.8 c -0.4,0 -0.8,-0.1 -1.2,-0.3 -1.1,-0.6 -1.5,-2.1 -0.9,-3.2 0.5,-0.8 0.4,-1.3 0.2,-2.3 -0.3,-1.4 -0.6,-3.2 0.7,-5.5 1.3,-2.3 3.1,-3 4.4,-3.4 1,-0.3 1.4,-0.5 1.9,-1.3 0.6,-1.1 2.1,-1.5 3.2,-0.9 1.1,0.6 1.5,2.1 0.9,3.2 -1.3,2.3 -3.1,3 -4.4,3.4 -1,0.3 -1.4,0.5 -1.9,1.3 -0.5,0.8 -0.4,1.3 -0.2,2.3 0.3,1.4 0.6,3.2 -0.7,5.5 -0.4,0.8 -1.2,1.2 -2,1.2 z"
           id="path303"
           style="fill:#1c3d61" /></g><path
         class="st0"
         d="m 746.6,741.7 c -1.3,0 -2.3,-1.1 -2.3,-2.3 l 0,-3.2 c 0,-1.3 1.1,-2.3 2.3,-2.3 1.3,0 2.4,1.1 2.4,2.3 l 0,3.2 c 0,1.2 -1.1,2.3 -2.4,2.3 z"
         id="path305"
         style="fill:#1c3d61" /><path
         class="st0"
         d="m 724.3,754.5 c -0.4,0 -0.8,-0.1 -1.2,-0.3 l -2.8,-1.6 c -1.1,-0.6 -1.5,-2.1 -0.9,-3.2 0.6,-1.1 2.1,-1.5 3.2,-0.9 l 2.8,1.6 c 1.1,0.6 1.5,2.1 0.9,3.2 -0.4,0.8 -1.2,1.2 -2,1.2 z"
         id="path307"
         style="fill:#1c3d61" /><path
         class="st0"
         d="m 721.5,781.9 c -0.8,0 -1.6,-0.4 -2,-1.2 -0.6,-1.1 -0.3,-2.6 0.9,-3.2 l 2.8,-1.6 c 1.1,-0.6 2.6,-0.3 3.2,0.9 0.6,1.1 0.3,2.6 -0.9,3.2 l -2.8,1.6 c -0.4,0.2 -0.8,0.3 -1.2,0.3 z"
         id="path309"
         style="fill:#1c3d61" /><path
         class="st0"
         d="m 746.6,796.4 c -1.3,0 -2.3,-1.1 -2.3,-2.3 l 0,-3.2 c 0,-1.3 1.1,-2.3 2.3,-2.3 1.3,0 2.4,1.1 2.4,2.3 l 0,3.2 c 0,1.3 -1.1,2.3 -2.4,2.3 z"
         id="path311"
         style="fill:#1c3d61" /><path
         class="st0"
         d="m 771.7,781.9 c -0.4,0 -0.8,-0.1 -1.2,-0.3 l -2.8,-1.6 c -1.1,-0.6 -1.5,-2.1 -0.9,-3.2 0.6,-1.1 2.1,-1.5 3.2,-0.9 l 2.8,1.6 c 1.1,0.6 1.5,2.1 0.9,3.2 -0.4,0.8 -1.1,1.2 -2,1.2 z"
         id="path313"
         style="fill:#1c3d61" /><path
         class="st0"
         d="m 768.9,754.5 c -0.8,0 -1.6,-0.4 -2,-1.2 -0.6,-1.1 -0.3,-2.6 0.9,-3.2 l 2.8,-1.6 c 1.1,-0.6 2.6,-0.3 3.2,0.9 0.6,1.1 0.3,2.6 -0.9,3.2 l -2.8,1.6 c -0.4,0.2 -0.8,0.3 -1.2,0.3 z"
         id="path315"
         style="fill:#1c3d61" /></g><path
       class="st0"
       d="m 689.5,821.6 c -10.6,0 -20.9,-5.5 -26.6,-15.4 -8.5,-14.7 -3.4,-33.5 11.2,-41.9 9.1,-5.3 20.1,-5.5 29.5,-0.7 0.8,0.4 1.3,1.2 1.3,2.1 l 0,50.3 c 0,0.9 -0.5,1.7 -1.3,2.1 -4.4,2.4 -9.3,3.5 -14.1,3.5 z m 0.1,-56.7 c -4.5,0 -9,1.2 -13,3.5 -12.4,7.2 -16.7,23.1 -9.5,35.5 6.7,11.7 21.1,16.2 33.2,10.7 l 0,-47.4 c -3.4,-1.5 -7.1,-2.3 -10.7,-2.3 z"
       id="path317"
       style="fill:#1c3d61" /><path
       class="st0"
       d="m 697.7,884.4 c -1.2,0 -2.3,-0.2 -3.5,-0.5 -3.4,-0.9 -6.3,-3.1 -8.1,-6.2 l -60,-103.9 c -1.8,-3.1 -2.3,-6.7 -1.3,-10.1 0.9,-3.4 3.1,-6.3 6.2,-8.1 l 57.2,-33 c 5.2,-3 11.8,-2.1 16,2.1 0.4,0.4 0.7,1 0.7,1.7 l 0,112.2 c 0,4.8 3.9,8.6 8.6,8.6 l 43.5,0 c 1.1,0 2,0.7 2.3,1.7 0.3,1 -0.2,2.1 -1.1,2.6 l -53.7,31 c -2.2,1.3 -4.5,1.9 -6.8,1.9 z m -2.8,-158.9 c -1.5,0 -3,0.4 -4.3,1.2 l -57.2,33 c -2,1.2 -3.4,3 -4,5.3 -0.6,2.2 -0.3,4.6 0.9,6.6 l 60,103.9 c 1.2,2 3,3.4 5.3,4 2.2,0.6 4.6,0.3 6.6,-0.9 l 46.2,-26.6 -34.6,0 c -7.4,0 -13.3,-6 -13.3,-13.3 l 0,-111.3 c -1.8,-1.2 -3.7,-1.9 -5.6,-1.9 z"
       id="path319"
       style="fill:#1c3d61" /></g><g
     transform="translate(-972.06248,-128.74528)"
     id="g321"><g
       id="g323"><g
         id="g325"><path
           class="st0"
           d="m 1098,774.3 c 0,-0.2 0,-0.4 0,-0.5 0,0 0,0 0,0 0,0.1 0,0.3 0,0.5 z"
           id="path327"
           style="fill:#1c3d61" /><path
           class="st0"
           d="m 963.7,773.7 c -0.1,0 -0.1,0 0,0 0,0.2 0,0.4 0,0.5 0,-0.1 0,-0.3 0,-0.5 z"
           id="path329"
           style="fill:#1c3d61" /><path
           class="st0"
           d="m 1100.9,802.4 c 0,0 0,0 0,0 -1.5,-11 -3.1,-21.5 -2.9,-28 -0.2,3.5 -1.8,8.2 -7.9,12.6 -3.7,2.6 -8.7,4.9 -15,6.8 -11.9,3.6 -27.6,5.5 -44.2,5.5 -16.6,0 -32.3,-2 -44.2,-5.5 -6.3,-1.9 -11.3,-4.1 -15,-6.8 -6.2,-4.4 -7.8,-9.1 -7.9,-12.6 0.2,6.6 -1.4,17 -2.9,28 0,0 0,0.1 0,0.1 -1.1,5 -1.7,10.2 -1.7,15.5 0,39.6 32.1,64.1 71.8,64.1 39.7,0 71.8,-24.5 71.8,-64.1 -0.2,-5.4 -0.8,-10.6 -1.9,-15.6 z"
           id="path331"
           style="fill:#1c3d61" /></g><g
         id="g333"><path
           class="st0"
           d="m 1098,776.6 c 0,0 -0.1,0 0,0 -1.4,-0.1 -2.4,-1.1 -2.3,-2.4 0,0 0,-0.1 0,-0.1 0,-0.1 0,-0.2 0,-0.4 0,-1.1 0.8,-2.1 1.9,-2.3 0.7,-0.1 1.5,0.1 2,0.5 0.5,0.5 0.8,1.2 0.8,1.9 0,0.1 0,0.3 0,0.4 0,0 0,0.1 0,0.1 -0.1,1.3 -1.2,2.3 -2.4,2.3 z"
           id="path335"
           style="fill:#1c3d61" /><path
           class="st0"
           d="m 963.7,776.6 c -1.3,0 -2.3,-1 -2.3,-2.3 0,0 0,-0.1 0,-0.1 0,-0.1 0,-0.3 0,-0.4 0,-0.7 0.3,-1.4 0.8,-1.9 0.5,-0.5 1.3,-0.7 2,-0.5 1.1,0.2 1.9,1.2 1.9,2.3 0,0.1 0,0.2 0,0.4 0,0 0,0.1 0,0.1 0,1.3 -1,2.4 -2.4,2.4 0,0 0,0 0,0 z m -0.1,-2.9 0,0 0,0 z"
           id="path337"
           style="fill:#1c3d61" /><path
           class="st0"
           d="m 1030.8,884.4 c -20.3,0 -38.8,-6.3 -52.3,-17.8 -6.9,-5.9 -12.3,-12.9 -16,-21 -3.9,-8.4 -5.9,-17.7 -5.9,-27.7 0,-5.3 0.6,-10.7 1.7,-15.8 0,0 0,0 0,-0.1 0.2,-1.3 0.4,-2.6 0.5,-3.9 1.3,-9.3 2.5,-18.1 2.3,-23.7 0,-1.3 1,-2.4 2.2,-2.4 1.3,-0.1 2.4,0.9 2.4,2.2 0.2,4 2.6,7.7 6.9,10.8 3.5,2.5 8.3,4.6 14.3,6.4 11.7,3.5 27.2,5.4 43.6,5.4 16.4,0 31.9,-1.9 43.6,-5.4 6,-1.8 10.8,-4 14.3,-6.4 4.3,-3.1 6.7,-6.8 6.9,-10.8 0.1,-1.3 1.2,-2.3 2.4,-2.2 1.3,0.1 2.3,1.1 2.2,2.4 -0.2,5.6 1,14.4 2.3,23.7 0.2,1.3 0.4,2.6 0.5,3.9 0,0 0,0 0,0.1 1.1,5.2 1.7,10.5 1.7,15.8 0,10 -2,19.3 -5.9,27.7 -3.7,8 -9.1,15.1 -16,21 -12.8,11.5 -31.4,17.8 -51.7,17.8 z m -67.7,-81.8 c 0,0 0,0.1 0,0.1 0,0.1 0,0.1 0,0.2 -1.1,4.9 -1.6,9.9 -1.6,15 0,36.4 28.5,61.8 69.4,61.8 40.9,0 69.4,-25.4 69.4,-61.8 0,-5 -0.5,-10.1 -1.6,-15 0,-0.1 0,-0.1 0,-0.2 0,0 0,-0.1 0,-0.1 -0.2,-1.3 -0.4,-2.5 -0.5,-3.8 -0.7,-5 -1.4,-9.9 -1.8,-14.2 -1.2,1.5 -2.8,2.9 -4.8,4.3 -3.9,2.8 -9.2,5.1 -15.7,7.1 -12.1,3.6 -28.1,5.6 -44.9,5.6 -16.8,0 -32.8,-2 -44.9,-5.6 -6.5,-1.9 -11.8,-4.3 -15.7,-7.1 -2,-1.4 -3.5,-2.9 -4.8,-4.3 -0.5,4.4 -1.1,9.2 -1.8,14.2 -0.4,1.2 -0.5,2.5 -0.7,3.8 z m 135.5,0.1 c 0,0 0,0 0,0 0,0 0,0 0,0 z m -135.5,0 c 0,0 0,0 0,0 0,0 0,0 0,0 z"
           id="path339"
           style="fill:#1c3d61" /></g><path
         class="st0"
         d="m 1030.8,801.6 c -16.8,0 -32.8,-2 -44.9,-5.6 -6.5,-1.9 -11.8,-4.3 -15.7,-7.1 -7.4,-5.2 -8.9,-11.1 -8.9,-15.2 0,-4 1.6,-9.9 8.9,-15.2 3.9,-2.8 9.2,-5.1 15.7,-7.1 12.1,-3.6 28.1,-5.6 44.9,-5.6 16.8,0 32.8,2 44.9,5.6 1,0.3 2.1,0.6 3.1,1 0.7,0.2 1.2,0.7 1.4,1.4 0.2,0.7 0.2,1.4 -0.2,2 l -16.6,28.8 c 2.4,-0.5 4.6,-1.1 6.6,-1.8 l 14.8,-25.6 c 0.6,-1.1 2.1,-1.5 3.2,-0.9 1.2,0.7 2.4,1.4 3.4,2.1 0,0 0,0 0,0 7.4,5.2 8.9,11.1 8.9,15.2 0,4 -1.6,9.9 -8.9,15.2 -3.9,2.8 -9.2,5.1 -15.7,7.1 -12.1,3.7 -28.1,5.7 -44.9,5.7 z m 0,-51.1 c -16.4,0 -31.9,1.9 -43.6,5.4 -6,1.8 -10.8,4 -14.3,6.4 -5.7,4.1 -7,8.4 -7,11.3 0,2.9 1.2,7.3 7,11.3 3.5,2.5 8.3,4.6 14.3,6.4 11.7,3.5 27.2,5.4 43.6,5.4 16.4,0 31.9,-1.9 43.6,-5.4 6,-1.8 10.8,-4 14.3,-6.4 5.7,-4.1 7,-8.4 7,-11.3 0,-2.9 -1.2,-7.3 -7,-11.3 -0.3,-0.2 -0.6,-0.4 -1,-0.7 l -14,24.3 c -0.3,0.5 -0.8,0.9 -1.3,1.1 -3.8,1.3 -8.3,2.3 -13.2,3.2 -0.9,0.2 -1.8,-0.2 -2.3,-1 -0.5,-0.7 -0.6,-1.7 -0.1,-2.5 l 17.8,-30.8 c -0.1,0 -0.1,0 -0.2,-0.1 -11.7,-3.4 -27.2,-5.3 -43.6,-5.3 z"
         id="path341"
         style="fill:#1c3d61" /><path
         class="st0"
         d="m 1058.8,790.3 c -0.8,0 -1.5,-0.4 -1.9,-1 -0.5,-0.7 -0.6,-1.7 -0.1,-2.5 l 40.3,-69.8 c 1,-1.6 2.5,-2.8 4.3,-3.3 1.8,-0.5 3.8,-0.2 5.4,0.7 1.6,1 2.8,2.5 3.3,4.3 0.5,1.8 0.2,3.8 -0.7,5.4 l -35.7,61.9 c -0.3,0.5 -0.8,0.9 -1.3,1.1 -3.8,1.3 -8.3,2.3 -13.2,3.2 -0.1,0 -0.3,0 -0.4,0 z m 12.9,-5.5 0,0 0,0 z m 31.5,-66.7 c -0.2,0 -0.4,0 -0.6,0.1 -0.6,0.2 -1.2,0.6 -1.5,1.1 l -37.7,65.3 c 2.4,-0.5 4.6,-1.1 6.6,-1.8 l 35.3,-61.1 c 0.3,-0.6 0.4,-1.2 0.2,-1.8 -0.2,-0.6 -0.6,-1.2 -1.1,-1.5 -0.3,-0.2 -0.7,-0.3 -1.2,-0.3 z"
         id="path343"
         style="fill:#1c3d61" /><g
         id="g345"><g
           id="g347"><path
             class="st1"
             d="m 1065.6,786.6 c -1.1,0.3 -2.1,0.5 -3.3,0.7 1.1,-0.2 2.2,-0.5 3.3,-0.7 z"
             id="path349"
             style="fill:#ed9339" /><path
             class="st1"
             d="m 1058.8,788 14.4,-24.9 c -10.1,-3.6 -25.3,-5.9 -42.3,-5.9 -30.5,0 -55.2,7.4 -55.2,16.5 0,9.1 24.7,16.5 55.2,16.5 11.7,0 22.5,-1.1 31.5,-2.9 -1.2,0.2 -2.4,0.5 -3.6,0.7 z"
             id="path351"
             style="fill:#ed9339" /><path
             class="st1"
             d="m 1081.8,767.3 -10.1,17.5 c -0.4,0.1 -0.9,0.3 -1.3,0.4 9.7,-3 15.7,-7.1 15.7,-11.5 -0.1,-2.3 -1.6,-4.4 -4.3,-6.4 z"
             id="path353"
             style="fill:#ed9339" /><path
             class="st1"
             d="m 1070.1,785.3 c -0.4,0.1 -0.9,0.3 -1.4,0.4 0.5,-0.1 1,-0.2 1.4,-0.4 z"
             id="path355"
             style="fill:#ed9339" /><path
             class="st1"
             d="m 1068.7,785.7 c -0.5,0.1 -0.9,0.3 -1.4,0.4 0.5,-0.1 0.9,-0.2 1.4,-0.4 z"
             id="path357"
             style="fill:#ed9339" /><path
             class="st1"
             d="m 1067.2,786.2 c -0.5,0.1 -1,0.3 -1.5,0.4 0.5,-0.2 1,-0.3 1.5,-0.4 z"
             id="path359"
             style="fill:#ed9339" /></g></g><g
         id="g361"><path
           class="st0"
           d="m 1062.3,789.6 c -1.1,0 -2.1,-0.8 -2.3,-1.9 -0.3,-1.3 0.6,-2.5 1.8,-2.8 0.5,-0.1 1.1,-0.2 1.6,-0.3 0.5,-0.1 1,-0.2 1.5,-0.4 0,0 0,0 0.1,0 l 0,0 c 1.3,-0.3 2.5,0.5 2.8,1.7 0.3,1.3 -0.5,2.5 -1.7,2.8 l 0,0 0,0 c 0,0 0,0 0,0 -0.6,0.1 -1.1,0.3 -1.7,0.4 -0.5,0.1 -1.1,0.2 -1.6,0.3 0,0 0,0 0,0 l 0,0 c -0.2,0.2 -0.3,0.2 -0.5,0.2 z"
           id="path363"
           style="fill:#1c3d61" /><path
           class="st0"
           d="m 1030.8,792.6 c -15,0 -29.1,-1.8 -39.7,-4.9 -11.7,-3.5 -17.8,-8.3 -17.8,-13.9 0,-5.6 6.2,-10.4 17.8,-13.9 10.6,-3.2 24.7,-4.9 39.7,-4.9 16.6,0 32.4,2.2 43.1,6.1 0.7,0.2 1.2,0.7 1.4,1.4 0.2,0.7 0.2,1.4 -0.2,2 l -12,20.8 c 0.7,0.3 1.3,0.9 1.4,1.7 0.3,1.3 -0.6,2.5 -1.8,2.8 l 0,0 c 0,0 0,0 0,0 -9.4,1.8 -20.4,2.8 -31.9,2.8 z m 0,-33.1 c -32.8,0 -52.9,8.3 -52.9,14.2 0,5.9 20.1,14.2 52.9,14.2 9.4,0 18.4,-0.7 26.5,-2.1 l 12.4,-21.4 c -10.2,-3.1 -24.1,-4.9 -38.9,-4.9 z"
           id="path365"
           style="fill:#1c3d61" /><path
           class="st0"
           d="m 1070.3,787.6 c -1,0 -1.9,-0.6 -2.2,-1.7 -0.4,-1.2 0.3,-2.6 1.6,-2.9 0,0 0,0 0,0 l 0,0 c 0,0 0.1,0 0.1,0 0.1,0 0.2,-0.1 0.3,-0.1 l 9.7,-16.7 c 0.3,-0.6 0.9,-1 1.5,-1.1 0.6,-0.1 1.3,0 1.9,0.4 3.5,2.5 5.3,5.3 5.3,8.3 0,5.3 -5.5,9.9 -15.9,13.3 0,0 0,0 -0.1,0 -0.4,0.1 -0.8,0.3 -1.2,0.4 0,0 -0.1,0 -0.1,0 0,0 0,0 0,0 0,0 0,0 0,0 -0.4,0.1 -0.6,0.1 -0.9,0.1 z m 12.1,-16.6 -5.3,9.2 c 4.8,-2.4 6.6,-4.7 6.6,-6.4 0,-1.1 -0.6,-2 -1.3,-2.8 z"
           id="path367"
           style="fill:#1c3d61" /><path
           class="st0"
           d="m 1068.8,788.1 c -1,0 -2,-0.7 -2.3,-1.7 -0.1,-0.2 -0.1,-0.4 -0.1,-0.6 0,-1 0.7,-2 1.7,-2.3 0.4,-0.1 0.9,-0.3 1.3,-0.4 1.2,-0.4 2.6,0.3 2.9,1.6 0.1,0.2 0.1,0.5 0.1,0.7 0,1 -0.7,1.9 -1.7,2.2 -0.5,0.1 -0.9,0.3 -1.4,0.4 -0.1,0 -0.3,0.1 -0.5,0.1 z"
           id="path369"
           style="fill:#1c3d61" /><path
           class="st0"
           d="m 1067.3,788.5 c -1,0 -2,-0.7 -2.3,-1.8 -0.1,-0.2 -0.1,-0.4 -0.1,-0.6 0,-1 0.7,-2 1.8,-2.3 0.5,-0.1 0.9,-0.2 1.4,-0.4 1.2,-0.4 2.5,0.4 2.9,1.6 0.1,0.2 0.1,0.4 0.1,0.6 0,1 -0.7,2 -1.7,2.3 -0.5,0.1 -0.9,0.3 -1.4,0.4 -0.3,0.2 -0.5,0.2 -0.7,0.2 z"
           id="path371"
           style="fill:#1c3d61" /><path
           class="st0"
           d="m 1065.7,788.9 c -1.1,0 -2,-0.7 -2.3,-1.8 0,-0.2 -0.1,-0.4 -0.1,-0.6 0,-1.1 0.7,-2 1.8,-2.3 0.5,-0.1 1,-0.2 1.5,-0.4 1.3,-0.3 2.5,0.4 2.9,1.7 0.1,0.2 0.1,0.4 0.1,0.6 0,1 -0.7,2 -1.8,2.3 -0.5,0.1 -1,0.3 -1.6,0.4 -0.2,0.1 -0.4,0.1 -0.5,0.1 z"
           id="path373"
           style="fill:#1c3d61" /></g></g><g
       id="g375"><path
         class="st1"
         d="m 1014.6,745 c -1.3,0 -2.4,-1.1 -2.4,-2.3 l 0,-19.2 c 0,-1.3 1.1,-2.3 2.4,-2.3 1.3,0 2.3,1.1 2.3,2.3 l 0,19.2 c 0,1.3 -1,2.3 -2.3,2.3 z"
         id="path377"
         style="fill:#ed9339" /><path
         class="st1"
         d="m 1024.2,735.4 -19.2,0 c -1.3,0 -2.3,-1.1 -2.3,-2.3 0,-1.3 1.1,-2.3 2.3,-2.3 l 19.2,0 c 1.3,0 2.3,1.1 2.3,2.3 0.1,1.3 -1,2.3 -2.3,2.3 z"
         id="path379"
         style="fill:#ed9339" /></g><g
       id="g381"><path
         class="st1"
         d="m 988.9,730 c -1.3,0 -2.3,-1.1 -2.3,-2.3 l 0,-19.2 c 0,-1.3 1.1,-2.3 2.3,-2.3 1.3,0 2.4,1.1 2.4,2.3 l 0,19.2 c 0,1.3 -1.1,2.3 -2.4,2.3 z"
         id="path383"
         style="fill:#ed9339" /><path
         class="st1"
         d="m 998.6,720.4 -19.2,0 c -1.3,0 -2.4,-1.1 -2.4,-2.3 0,-1.3 1.1,-2.3 2.4,-2.3 l 19.2,0 c 1.3,0 2.3,1.1 2.3,2.3 0,1.3 -1,2.3 -2.3,2.3 z"
         id="path385"
         style="fill:#ed9339" /></g><g
       id="g387"><path
         class="st1"
         d="m 1068,720.4 c -1.3,0 -2.3,-1.1 -2.3,-2.3 l 0,-19.2 c 0,-1.3 1.1,-2.4 2.3,-2.4 1.3,0 2.3,1.1 2.3,2.4 l 0,19.2 c 0,1.3 -1,2.3 -2.3,2.3 z"
         id="path389"
         style="fill:#ed9339" /><path
         class="st1"
         d="m 1077.6,710.8 -19.2,0 c -1.3,0 -2.3,-1.1 -2.3,-2.4 0,-1.3 1.1,-2.3 2.3,-2.3 l 19.2,0 c 1.3,0 2.3,1.1 2.3,2.3 0.1,1.4 -1,2.4 -2.3,2.4 z"
         id="path391"
         style="fill:#ed9339" /></g><circle
       class="st1"
       cx="1057.6"
       cy="736.90002"
       r="4.5"
       id="circle393"
       style="fill:#ed9339" /><circle
       class="st1"
       cx="1021.3"
       cy="700.70001"
       r="2.9000001"
       id="circle395"
       style="fill:#ed9339" /><g
       id="g397"><path
         class="st0"
         d="m 967.8,803.6 c -0.4,0 -0.8,-0.1 -1.2,-0.3 l -18.7,-10.8 c -4.3,-2.5 -5.7,-7.9 -3.3,-12.2 2.5,-4.3 7.9,-5.7 12.2,-3.3 l 18.7,10.8 c 0.5,0.3 0.9,0.8 1.1,1.4 0.2,0.6 0.1,1.2 -0.2,1.8 l -6.6,11.4 c -0.4,0.8 -1.2,1.2 -2,1.2 z m -15.4,-23.1 c -1.5,0 -2.9,0.8 -3.7,2.1 -1.2,2 -0.5,4.6 1.5,5.8 l 16.8,9.6 4.2,-7.3 -16.7,-9.6 c -0.7,-0.4 -1.4,-0.6 -2.1,-0.6 z"
         id="path399"
         style="fill:#1c3d61" /><path
         class="st0"
         d="m 1095,803.6 c -0.8,0 -1.6,-0.4 -2,-1.2 l -6.6,-11.4 c -0.3,-0.5 -0.4,-1.2 -0.2,-1.8 0.2,-0.6 0.6,-1.1 1.1,-1.4 L 1106,777 c 4.3,-2.5 9.7,-1 12.2,3.3 2.5,4.3 1,9.7 -3.3,12.2 l -18.7,10.8 c -0.4,0.2 -0.8,0.3 -1.2,0.3 z m -3.4,-12.9 4.2,7.3 16.7,-9.6 c 2,-1.2 2.7,-3.8 1.5,-5.8 -1.2,-2 -3.8,-2.7 -5.8,-1.5 l -1.2,-2 1.2,2 -16.6,9.6 z"
         id="path401"
         style="fill:#1c3d61" /></g></g><i:pgf
     id="adobe_illustrator_pgf" /></svg>